<svg width="518" height="399" xmlns="http://www.w3.org/2000/svg" version="1.1">
<defs>
    <linearGradient id="gradientDef">
      <stop offset="5%" stop-color="rgba(249, 187, 21, 1)" />
      <stop offset="95%" stop-color="#ffa411" />
    </linearGradient>
  </defs>
 <g>
  <title>Layer 1</title>
  <g stroke="null" id="svg_147">
   <g stroke="null" id="svg_145">
    <path stroke="null" id="svg_146" fill="url(#gradientDef)" d="m432.51553,50.49659c35.05959,33.35031 24.32473,95.89319 9.93545,147.28982c-14.38928,51.39663 -32.54718,91.647 -67.60676,123.1396c-34.94539,31.58106 -86.90667,54.49281 -143.66437,58.20823c-56.87191,3.71542 -118.54024,-11.58857 -147.09039,-43.16963c-28.55015,-31.4926 -23.98213,-79.26227 -16.33069,-121.10496c7.76564,-41.75423 18.5005,-77.66995 47.05065,-110.93179c28.55015,-33.35031 74.9156,-64.13521 138.41115,-77.49302c63.49554,-13.35782 144.23538,-9.28855 179.29497,24.06176"/>
   </g>
  </g>
  <g stroke="null" id="svg_191">
   <circle stroke="null" id="svg_152" r="17.41228" fill="#f5a871" cy="269.934" cx="131.57025"/>
   <circle stroke="null" id="svg_153" r="17.41228" fill="#f5a871" cy="241.40663" cx="256.06325"/>
   <path stroke="null" id="svg_154" fill="#fdd1a7" d="m254.27535,302.16966c-7.63922,11.15221 -20.46832,19.90475 -36.66487,23.61356c-32.37365,7.41762 -65.94405,-8.13587 -74.97205,-34.74l-15.30354,-45.07702l-7.38506,-21.75426l117.25479,-26.86915l14.01957,41.2919l8.66841,25.53938c4.51463,13.3018 2.04646,26.85368 -5.61724,37.99558z"/>
   <path stroke="null" id="svg_155" fill="#ffbc8a" d="m251.22418,238.63469l-48.71266,11.16252c-3.70822,0.85076 -7.52124,1.27872 -11.34116,1.27872c-9.17045,0 -18.24866,-2.52702 -25.57159,-7.11702c-3.54066,-2.22126 -7.81305,-3.43863 -12.02332,-3.43863c-1.64294,0 -3.27395,0.18356 -4.85539,0.545l-21.38643,4.90091l-7.38506,-21.75426l117.25479,-26.86915l14.02082,41.2919z"/>
   <path stroke="null" id="svg_156" fill="#ffe180" d="m209.9631,173.13833l-48.97623,11.22285c-8.07286,1.85002 -12.79207,8.72625 -10.5404,15.35962c0,0 -7.49049,-1.288 -15.56335,0.5615l-3.73771,0.85643c-9.75094,2.23467 -15.45102,10.54069 -12.73183,18.5523l6.75311,19.89341l21.39145,-4.90194c8.2969,-1.90107 17.08015,-0.28307 23.92802,4.00941c8.20841,5.14531 19.14857,7.17941 29.86092,4.72457l48.71266,-11.16252l-16.51598,-48.65538c-2.72045,-8.01109 -12.82972,-12.69441 -22.58067,-10.46026z"/>
   <path stroke="null" id="svg_157" fill="#f8c52d" d="m232.54816,183.60065l16.51535,48.6528l-14.30385,3.27776l-16.51535,-48.6528c-2.72108,-8.01522 -12.82219,-12.69544 -22.57815,-10.45974l14.29444,-3.27569c9.75471,-2.23519 19.86649,2.44246 22.58757,10.45768z"/>
   <path stroke="null" id="svg_158" fill="#fc7cb6" d="m231.60745,276.16416c3.22751,9.50843 -3.53752,19.36697 -15.11026,22.01877c-11.57273,2.6518 -23.57157,-2.90651 -26.79909,-12.41495l41.90934,-9.60382z"/>
   <circle stroke="null" id="svg_159" r="16.98793" fill="#c47a4a" cy="132.70803" cx="265.64852"/>
   <circle stroke="null" id="svg_160" r="16.98793" fill="#c47a4a" cy="161.01007" cx="386.94601"/>
   <path stroke="null" id="svg_161" fill="#e89a5e" d="m271.54565,126.66297l-9.76161,28.24223c-8.9596,25.92197 9.35307,52.90301 40.90275,60.26442c31.54967,7.36142 64.38834,-7.68471 73.34794,-33.60668l9.76161,-28.24223c8.9596,-25.92197 -9.35307,-52.90301 -40.90275,-60.26442c-31.54967,-7.3609 -64.38834,7.68522 -73.34794,33.60668z"/>
   <path stroke="null" id="svg_162" fill="#82aee3" d="m384.67928,123.77656c-2.62318,1.73865 -5.42333,3.28498 -8.35024,4.62609c-13.27529,6.08734 -29.3752,8.0049 -45.14376,4.32548c-19.26027,-4.49409 -33.58672,-16.30268 -39.79072,-30.71769c2.62318,-1.73865 5.42521,-3.29013 8.36091,-4.63537c13.26462,-6.07754 29.36641,-8.00078 45.14188,-4.31981c19.26027,4.49357 33.58734,16.30216 39.78193,30.7213z"/>
   <path stroke="null" id="svg_163" fill="#557983" d="m384.68117,123.77656c-2.62318,1.7371 -5.42584,3.28601 -8.35212,4.62609c-13.27529,6.08785 -29.37269,8.00387 -45.14062,4.32548c-11.68193,-2.72553 -21.55336,-8.14103 -28.88884,-15.1972c5.35743,2.81731 11.29786,5.04373 17.73406,6.54675c17.68449,4.12646 35.74048,1.97686 50.62858,-4.84986c3.01352,-1.38081 5.91533,-2.96014 8.64394,-4.72251c2.18201,2.92353 3.98623,6.03113 5.375,9.27125z"/>
   <path stroke="null" id="svg_164" fill="#fc7cb6" d="m332.79371,177.26531c-3.20241,9.26455 -14.93893,14.6424 -26.21483,12.01122c-11.2759,-2.63118 -17.82129,-12.27419 -14.61888,-21.53874l40.83371,9.52751z"/>
   <path stroke="null" id="svg_165" fill="#c59191" d="m305.64633,274.05788l2.13557,-6.11002c0.73612,-2.10525 3.25261,-3.43914 5.89023,-3.12256l36.52304,4.38633c3.19174,0.3831 5.24008,2.99108 4.34958,5.53872l-4.86857,13.92828c-0.8905,2.54765 -4.31067,3.86504 -7.26394,2.79824l-33.79004,-12.20509c-2.43993,-0.88067 -3.71198,-3.10864 -2.97586,-5.21389z"/>
   <path stroke="null" id="svg_166" fill="#fb5fa7" d="m354.546,274.75035l-4.86731,13.92879c-0.89301,2.54713 -4.31569,3.86659 -7.26708,2.7972l-5.81617,-2.09906c1.51931,-0.46354 2.77191,-1.4927 3.25513,-2.88847l4.87359,-13.92879c0.52715,-1.52312 0.01255,-3.06687 -1.17792,-4.14708l6.64706,0.79972c3.193,0.38207 5.23945,2.99056 4.35272,5.53769z"/>
   <path stroke="null" id="svg_167" fill="#c59191" d="m302.12826,244.91332l-0.53656,-6.34153c-0.18513,-2.18517 1.62474,-4.14605 4.23537,-4.58948l36.14651,-6.14148c3.15911,-0.53675 6.16886,1.33853 6.3929,3.9826l1.2231,14.45678c0.22341,2.64407 -2.44181,4.84316 -5.66054,4.67095l-36.83305,-1.97377c-2.6602,-0.14231 -4.78259,-1.8789 -4.96772,-4.06407z"/>
   <path stroke="null" id="svg_168" fill="#fb5fa7" d="m343.93029,250.94858l-7.57082,-0.40733c1.04802,-0.85592 1.66176,-2.07328 1.54378,-3.39789l-1.22122,-14.45317c-0.1299,-1.52828 -1.19047,-2.80185 -2.67275,-3.49483l7.96178,-1.35503c3.16225,-0.53469 6.16949,1.34008 6.3929,3.98415l1.2275,14.45833c0.22341,2.64304 -2.44307,4.83904 -5.66117,4.66579z"/>
   <path stroke="null" id="svg_169" fill="#c59191" d="m283.1416,296.66445l4.5504,-5.14119c1.56763,-1.77165 4.48827,-2.31768 6.8347,-1.27872l32.49477,14.38511c2.83968,1.25707 3.67872,4.2832 1.78163,6.42713l-10.37285,11.72042c-1.8971,2.14341 -5.65929,2.42081 -7.99065,0.58832l-26.67169,-20.96434c-1.92659,-1.51436 -2.19393,-3.96507 -0.6263,-5.73672z"/>
   <path stroke="null" id="svg_170" fill="#fb5fa7" d="m328.80121,311.05471l-10.37348,11.72248c-1.89772,2.14495 -5.65489,2.41978 -7.98626,0.58574l-5.2269,-4.10635c1.92847,0.29029 3.9994,-0.31607 5.252,-1.73195l10.37348,-11.71784c0.94259,-1.06474 1.2093,-2.34862 0.89301,-3.52061l5.28903,2.34346c2.83906,1.25913 3.67621,4.28527 1.77912,6.42506z"/>
   <path stroke="null" id="svg_171" fill="#b0e6a0" d="m207.69637,120.68443l-4.09166,5.39538c-1.40949,1.85879 -4.2749,2.57549 -6.70605,1.67678l-33.66265,-12.44073c-2.94198,-1.08743 -4.04208,-4.05633 -2.33576,-6.30596l9.32734,-12.29945c1.70569,-2.24962 5.43462,-2.74667 7.91911,-1.05598l28.42696,19.3448c2.05273,1.39731 2.53281,3.82637 1.12269,5.68516z"/>
   <path stroke="null" id="svg_172" fill="#27d1b3" d="m178.14922,95.65344l28.42194,19.34583c2.05399,1.3968 2.53469,3.82431 1.12395,5.68567l-4.0904,5.39384c-0.12928,0.17067 -0.26985,0.33102 -0.42548,0.47849c0.97585,-1.77474 0.40854,-3.89031 -1.45844,-5.16078l-28.42445,-19.34222c-2.48135,-1.69328 -6.21153,-1.19468 -7.91848,1.05649l4.85351,-6.40031c1.70381,-2.24756 5.43337,-2.74667 7.91785,-1.05701z"/>
   <path stroke="null" id="svg_173" fill="#b0e6a0" d="m204.75,149.681l-1.59901,6.21985c-0.55099,2.14289 -2.94511,3.62167 -5.60343,3.46028l-36.81109,-2.23106c-3.21684,-0.1949 -5.48671,-2.67604 -4.82025,-5.26906l3.64484,-14.17886c0.66646,-2.59302 3.96363,-4.10841 7.00163,-3.21795l34.76526,10.19008c2.51085,0.7363 3.97305,2.88383 3.42205,5.02672z"/>
   <path stroke="null" id="svg_174" fill="#27d1b3" d="m166.5652,134.46266l34.76087,10.19214c2.51147,0.73527 3.9743,2.88125 3.42268,5.02672l-1.59838,6.21779c-0.05083,0.19696 -0.1161,0.38671 -0.20082,0.56924c0.17823,-1.9418 -1.23565,-3.77068 -3.51933,-4.43995l-34.76213,-10.18801c-3.03674,-0.89356 -6.33391,0.62286 -7.001,3.21795l1.89647,-7.37843c0.66646,-2.58993 3.96363,-4.10686 7.00163,-3.21743z"/>
   <path stroke="null" id="svg_175" fill="#b0e6a0" d="m239.07033,105.36245l-6.09042,3.92021c-2.09854,1.35091 -5.08947,1.21891 -6.99974,-0.30885l-26.45456,-21.14996c-2.31191,-1.84848 -2.10921,-4.94783 0.42987,-6.58181l13.88464,-8.93662c2.53971,-1.6345 6.25044,-1.05391 7.88083,1.23283l18.6597,26.16637c1.34799,1.88972 0.78821,4.30692 -1.31033,5.65783z"/>
   <path stroke="null" id="svg_176" fill="#27d1b3" d="m221.72472,73.53773l18.65468,26.16585c1.34861,1.88972 0.79009,4.30641 -1.31096,5.65835l-6.08853,3.91918c-0.19266,0.12426 -0.39159,0.23512 -0.59869,0.07599c1.65549,-1.3937 2.00315,-3.54124 0.77754,-5.25978l-18.6597,-26.16328c-1.62725,-2.28829 -5.33986,-2.86784 -7.88083,-1.23232l7.22503,-4.65032c2.5372,-1.63295 6.24982,-1.0534 7.88146,1.23232z"/>
   <path fill="rgba(148,148,148,0.075)" stroke="null" id="svg_177" d="m278.62321,251.85761c3.39758,-4.95144 4.24541,-10.6928 2.38722,-16.16759s-6.20087,-10.02766 -12.22664,-12.81919c-5.7484,-2.66263 -12.37161,-3.41388 -18.75447,-2.1532l-12.9521,-38.15748c-3.41327,-10.05292 -16.14447,-15.95 -28.37864,-13.1466l-18.14197,4.15739c-2.50394,0.57388 -3.9674,2.70646 -3.26956,4.76376s3.29529,3.26023 5.79798,2.68583l18.14197,-4.15739c7.23508,-1.65615 14.76385,1.8294 16.78206,7.77494l15.25146,44.93059l-44.17858,10.12356c-8.95583,2.05163 -18.33714,0.56718 -25.74166,-4.07438c-8.23163,-5.15923 -18.45449,-6.85869 -28.04729,-4.6596l-16.858,3.86298l-5.48796,-16.1681c-2.01822,-5.94503 2.22719,-12.13033 9.46227,-13.78854l3.73771,-0.85643c6.7939,-1.55664 13.28658,-0.50943 13.33553,-0.50169c1.60905,0.2774 3.27646,-0.15623 4.39978,-1.14157c1.12332,-0.98585 1.53939,-2.38162 1.09822,-3.682c-1.55131,-4.56834 1.71134,-9.32178 7.27085,-10.59586l10.52158,-2.41101c2.50394,-0.57336 3.9674,-2.70646 3.26956,-4.76376c-0.69784,-2.05781 -3.29466,-3.25919 -5.79798,-2.68583l-10.52158,2.41101c-8.39103,1.92272 -14.02647,8.01831 -14.50906,14.79399c-3.20178,-0.06084 -7.31791,0.14747 -11.59532,1.12765l-3.73771,0.85643c-12.2348,2.80339 -19.4134,13.26313 -16.00138,23.31606l9.82248,28.93625c-13.19684,3.4541 -20.82916,14.93527 -17.07827,25.98487c3.19049,9.39706 13.62295,15.56483 24.95596,15.56483c1.99123,0 4.01007,-0.20315 6.02264,-0.60017l0.49765,1.46692c8.07663,23.79351 34.49039,39.40991 63.18595,39.40991c5.81555,0 11.72586,-0.64194 17.59474,-1.98666c34.82865,-7.98119 55.26119,-37.75479 45.54728,-66.37084l-0.49577,-1.4597c6.25546,-1.63656 11.45036,-5.09633 14.69105,-9.81935zm-162.9326,21.71507c-2.35647,-6.94119 2.34454,-14.15205 10.54103,-16.45272l8.84162,26.04778c-8.4632,1.51642 -17.02618,-2.65386 -19.38265,-9.59506zm100.66099,48.48265c-29.82892,6.83446 -60.86525,-7.54291 -69.18412,-32.05107l-16.20283,-47.73398l16.85737,-3.86298c6.72487,-1.54065 13.94552,-0.31659 19.80938,3.35922c6.89055,4.3193 15.08013,6.56686 23.45673,6.56686c3.50175,0 7.0374,-0.3929 10.52283,-1.1921l44.17858,-10.12356l9.57021,28.19376c8.31949,24.50867 -9.17987,50.00835 -39.00816,56.84384zm54.07198,-73.99625c-2.00629,2.92353 -5.18737,5.08705 -9.02172,6.16107l-8.84162,-26.04778c3.95861,-0.71155 8.04274,-0.21295 11.60034,1.43547c3.83561,1.77732 6.59999,4.67507 7.7823,8.1601c1.18294,3.48452 0.64324,7.1397 -1.51931,10.29114z"/>
   <path stroke="null" id="svg_178" d="m230.34356,272.43936l-41.90934,9.60331c-1.20239,0.27534 -2.22217,0.93223 -2.83592,1.82579c-0.61312,0.89356 -0.76938,1.95057 -0.43364,2.93848c3.25952,9.60124 13.91853,15.90256 25.49754,15.90256c2.34643,0 4.73176,-0.25884 7.09952,-0.80178c6.80834,-1.55973 12.46951,-5.20512 15.94051,-10.26329c3.47163,-5.05869 4.33766,-10.92483 2.4393,-16.51923c-0.69784,-2.05678 -3.29466,-3.25919 -5.79798,-2.68583zm-4.84033,15.40654c-2.2366,3.25868 -5.88395,5.6073 -10.26993,6.61223c-7.48421,1.7139 -15.21569,-0.96781 -19.10025,-6.15024l31.57478,-7.23561c-0.01757,2.35017 -0.76122,4.66991 -2.2046,6.77362z"/>
   <path stroke="null" id="svg_179" d="m188.77749,268.6594c-1.98244,-5.83675 -9.37441,-9.26249 -16.48146,-7.63469c-7.10517,1.62831 -11.27402,7.70275 -9.29283,13.54105c0.58049,1.70978 2.47131,2.82917 4.53157,2.82917c0.41795,0 0.84406,-0.04641 1.26703,-0.14283c2.50394,-0.57388 3.9674,-2.70646 3.26956,-4.76376c-0.58802,-1.7304 0.64764,-3.53092 2.75371,-4.01354c2.10545,-0.48261 4.29812,0.53263 4.88488,2.26303c0.6991,2.0573 3.29592,3.26023 5.7986,2.68583c2.50394,-0.57388 3.9674,-2.70697 3.26893,-4.76427z"/>
   <path stroke="null" id="svg_180" d="m227.43045,248.39114c-7.10517,1.62831 -11.27464,7.70224 -9.29345,13.54053c0.58049,1.70978 2.47131,2.82969 4.53157,2.82969c0.41795,0 0.84406,-0.04641 1.26703,-0.14283c2.50331,-0.57388 3.9674,-2.70646 3.26956,-4.76376c-0.58739,-1.7304 0.64826,-3.53144 2.75434,-4.01405c2.10482,-0.4821 4.29749,0.53263 4.88426,2.26303c0.6991,2.0573 3.29592,3.26074 5.7986,2.68583c2.50331,-0.57388 3.96677,-2.70697 3.26893,-4.76427c-1.98244,-5.83778 -9.37566,-9.26352 -16.48084,-7.63418z"/>
   <path fill="rgba(148,148,148,0.075)" stroke="null" id="svg_181" d="m393.88049,140.94908c-0.36461,-0.08508 -0.73298,-0.16087 -1.10199,-0.23254c0.17069,-9.13152 -2.5736,-18.18054 -8.13248,-26.37055c-8.33769,-12.2845 -21.99892,-21.16646 -38.46721,-25.00882c-16.0541,-3.74593 -33.00121,-2.25014 -47.71673,4.21514c-10.38226,4.56112 -18.86743,11.2574 -24.7702,19.37677c-0.36712,-0.10054 -0.73738,-0.19542 -1.10952,-0.28204c-13.46167,-3.14009 -27.52642,3.30251 -31.35137,14.36448c-3.72767,10.78561 3.63731,22.03579 16.48648,25.50381l-0.46125,1.33441c-4.67654,13.53074 -2.6602,27.74724 5.67749,40.03225s21.99955,21.16646 38.46721,25.00882c5.72455,1.33544 11.63674,2.00522 17.54517,2.00522c4.92881,0 9.85512,-0.46611 14.66218,-1.40041c2.52967,-0.4919 4.09542,-2.57498 3.49736,-4.65341c-0.59806,-2.07895 -3.13777,-3.36335 -5.66305,-2.87352c-9.01294,1.75102 -18.51097,1.57211 -27.46994,-0.51819c-14.04969,-3.27776 -25.704,-10.85522 -32.81733,-21.33558s-8.83346,-22.60915 -4.84347,-34.1522l4.62445,-13.38018c0.71039,-2.05421 -0.74177,-4.19297 -3.24195,-4.77665c-2.49955,-0.58367 -5.10327,0.60894 -5.81366,2.66366l-1.58897,4.5967c-3.65739,-1.06526 -6.68408,-3.15762 -8.59122,-5.9672c-2.07783,-3.0612 -2.57925,-6.60347 -1.41451,-9.97455c2.35019,-6.79682 10.84665,-10.81861 19.12974,-9.16297c-0.60747,1.2184 -1.17855,2.45277 -1.67871,3.71603c-0.80327,2.031 0.54848,4.21256 3.02042,4.87358c2.4688,0.65895 5.12712,-0.45013 5.93102,-2.48165c2.7035,-6.82982 7.19617,-12.75629 12.90566,-17.55562c7.90656,13.52713 22.61644,23.80795 40.30406,27.93492c5.81115,1.35555 11.72523,2.02688 17.60353,2.02688c10.7839,0 21.44542,-2.25942 31.11917,-6.69473c1.15533,-0.52954 2.28555,-1.09723 3.39946,-1.68399c2.00315,7.24334 1.78602,14.8239 -0.75307,22.16882l-9.76161,28.24223c-3.56325,10.30918 -11.50558,19.24374 -22.36541,25.15783c-2.16695,1.18024 -2.75873,3.57991 -1.32226,5.36032c0.90556,1.12249 2.40165,1.73092 3.92724,1.73092c0.89301,0 1.79606,-0.20882 2.59619,-0.64452c12.73183,-6.93449 22.04348,-17.40815 26.21985,-29.49208l0.46376,-1.34214c1.97491,0.39032 3.95548,0.58986 5.91031,0.58986c11.06128,-0.00052 21.25904,-5.99556 24.42693,-15.16008c3.82494,-11.06249 -4.01886,-22.61791 -17.48179,-25.75903zm-19.84516,-15.9237c-12.75065,5.84706 -27.51199,7.26139 -41.56419,3.98209c-15.90223,-3.71036 -28.97984,-13.25437 -35.42168,-25.725c13.0318,-7.58468 29.96133,-10.37827 46.55827,-6.5055c14.04969,3.27776 25.70463,10.85522 32.81733,21.33558c0.96079,1.41588 1.81489,2.86423 2.57862,4.33477c-1.59462,0.92604 -3.25387,1.79279 -4.96835,2.57807zm28.27258,39.56923c-1.16474,3.3716 -3.8582,6.16777 -7.584,7.87497c-3.42017,1.56747 -7.33297,2.04028 -11.12591,1.36741l6.7255,-19.45926c0.66835,-1.93304 1.19486,-3.87999 1.59085,-5.83365c8.09734,2.17486 12.74061,9.25939 10.39356,16.05054z"/>
   <path stroke="null" id="svg_182" d="m305.29302,192.99668c2.35898,0.55016 4.7349,0.81261 7.07379,0.81261c11.29975,0 21.71715,-6.12498 24.95408,-15.48749c0.71039,-2.05421 -0.74177,-4.19297 -3.24195,-4.77665l-40.83309,-9.52803c-2.49892,-0.58316 -5.10327,0.60894 -5.81366,2.66366c-1.8927,5.47479 -1.07688,11.22646 2.29685,16.19749c3.37311,4.97 8.90061,8.56331 15.56398,10.11841zm21.02998,-13.22085c-3.81804,4.93649 -11.27025,7.45835 -18.45889,5.78055c-4.24415,-0.98998 -7.76473,-3.2793 -9.91348,-6.44517c-1.36179,-2.00574 -2.06905,-4.21153 -2.09791,-6.44517l30.47028,7.1098z"/>
   <path stroke="null" id="svg_183" d="m297.11535,154.74691c0.42987,0.10003 0.86226,0.14798 1.28774,0.14798c2.05148,0 3.93728,-1.11063 4.5253,-2.81216c1.98244,-5.73827 -2.08599,-11.73228 -9.06942,-13.36213c-3.3844,-0.7894 -6.93887,-0.4491 -10.00949,0.95801c-3.07251,1.40763 -5.29342,3.71397 -6.25358,6.49364c-0.70976,2.05421 0.74177,4.19297 3.24257,4.77613c2.49955,0.58264 5.10327,-0.60997 5.81304,-2.66418c0.27424,-0.79198 0.90682,-1.44939 1.78225,-1.85054c0.87607,-0.40115 1.88894,-0.4986 2.85412,-0.27328c1.99123,0.46457 3.15095,2.17331 2.58552,3.80935c-0.71039,2.05575 0.74114,4.194 3.24195,4.77716z"/>
   <path stroke="null" id="svg_184" d="m350.83339,167.28148c0.42987,0.10003 0.86226,0.14798 1.28837,0.14798c2.05085,0 3.93665,-1.11012 4.5253,-2.81164c1.98307,-5.73827 -2.08474,-11.73228 -9.06942,-13.36265c-3.38315,-0.78889 -6.93887,-0.4491 -10.00949,0.95801c-3.07188,1.40711 -5.29279,3.71345 -6.25358,6.49312c-0.71039,2.05421 0.74177,4.19297 3.24195,4.77665c2.49829,0.58213 5.10327,-0.60894 5.81366,-2.66366c0.27424,-0.7925 0.90682,-1.44991 1.78288,-1.85105c0.87544,-0.40166 1.88894,-0.4986 2.85349,-0.27328c1.99123,0.46457 3.15095,2.17331 2.58552,3.80884c-0.71102,2.05524 0.74051,4.194 3.24132,4.77768z"/>
   <path fill="rgba(148,148,148,0.075)" stroke="null" id="svg_185" d="m350.87606,265.38525l-36.52304,-4.38633c-4.94889,-0.59347 -9.71454,1.93458 -11.09516,5.88161l-2.13557,6.11002c-1.37936,3.94702 1.03044,8.1699 5.60594,9.82244l33.79067,12.20509c1.28774,0.46508 2.66271,0.69711 4.03831,0.69711c1.4553,0 2.91123,-0.26038 4.25984,-0.78012c2.62192,-1.01009 4.58429,-2.90136 5.38379,-5.18862l4.86857,-13.92828c0.79888,-2.28726 0.35708,-4.74571 -1.21306,-6.74474c-1.57077,-1.99955 -4.11487,-3.34376 -6.98029,-3.68819zm-0.85536,8.29777l-4.86857,13.92828c-0.05146,0.14798 -0.16379,0.25574 -0.3326,0.32071c-0.17007,0.06548 -0.34264,0.06703 -0.51208,0.00516l-33.79067,-12.20509c-0.28303,-0.10209 -0.43176,-0.36299 -0.34641,-0.60688l2.13557,-6.10951c0.07656,-0.22017 0.32445,-0.36918 0.59618,-0.36918c0.0295,0 0.05962,0.00155 0.08911,0.00567l36.52304,4.38633c0.18513,0.02217 0.33009,0.099 0.43176,0.2279s0.12677,0.26915 0.07468,0.41662z"/>
   <path fill="rgba(148,148,148,0.075)" stroke="null" id="svg_186" d="m296.89634,238.84042l0.53593,6.34102c0.34641,4.09655 4.36841,7.38771 9.35621,7.6548l36.83305,1.97377c0.21902,0.01186 0.43615,0.01753 0.65391,0.01753c2.65895,0 5.21937,-0.86829 7.10831,-2.42699c2.04394,-1.68606 3.10012,-4.01457 2.89993,-6.38845l-1.22248,-14.45678c-0.20082,-2.37389 -1.6398,-4.55957 -3.94732,-5.9971c-2.30815,-1.43805 -5.25953,-1.98511 -8.0942,-1.50405l-36.14651,6.14148c-4.89367,0.83117 -8.32263,4.5472 -7.97684,8.64478zm9.88336,-1.07093l36.14651,-6.14148c0.04581,-0.00773 0.091,-0.01186 0.13492,-0.01186c0.13179,0 0.25416,0.03506 0.36586,0.10467c0.14873,0.09281 0.23094,0.21759 0.24412,0.37073l1.2231,14.45678c0.01318,0.15314 -0.04769,0.28617 -0.17948,0.39496s-0.29495,0.15932 -0.47945,0.14901l-36.83305,-1.97377c-0.30813,-0.0165 -0.55727,-0.21965 -0.57798,-0.47282c0,0 0,-0.00052 -0.00063,-0.00052l-0.53593,-6.34102c-0.02196,-0.25368 0.19015,-0.48313 0.492,-0.53469z"/>
   <path fill="rgba(148,148,148,0.075)" stroke="null" id="svg_187" d="m329.2543,301.22505l-32.49477,-14.38459c-4.40041,-1.94902 -9.93481,-0.91315 -12.87365,2.40843l-4.5504,5.14119s-0.00063,0 -0.00063,0.00052c-2.93884,3.32107 -2.43177,7.96623 1.17917,10.8052l26.67232,20.96486c1.87513,1.47362 4.36213,2.28675 6.93448,2.28675c0.29872,0 0.59743,-0.01083 0.8974,-0.033c2.88424,-0.21243 5.51558,-1.43805 7.21876,-3.36232l10.37348,-11.72093c1.70256,-1.92427 2.31066,-4.35848 1.66741,-6.67823c-0.64324,-2.32078 -2.47445,-4.29919 -5.02357,-5.42787zm-4.25733,7.55684l-10.37285,11.72042c-0.11045,0.12426 -0.26044,0.19387 -0.44682,0.20779c-0.17948,0.01444 -0.34955,-0.033 -0.48384,-0.13922l-26.67169,-20.96434c-0.22278,-0.17531 -0.25416,-0.46251 -0.0728,-0.66772l4.55103,-5.1417c0.18074,-0.20418 0.5215,-0.26967 0.79511,-0.1485l32.49414,14.38459c0.16505,0.07322 0.26922,0.18614 0.31064,0.33566s0.0069,0.28926 -0.10292,0.41301z"/>
   <path fill="rgba(148,148,148,0.075)" stroke="null" id="svg_188" d="m161.30629,118.84317l33.66265,12.44073c1.31975,0.48726 2.71104,0.7198 4.08789,0.7198c3.37938,0 6.66526,-1.40247 8.54353,-3.87896l4.09166,-5.39487l0.00063,0c2.64263,-3.48555 1.73268,-8.08895 -2.11611,-10.70827l-28.42696,-19.34531c-2.23033,-1.51745 -5.1472,-2.16919 -8.00822,-1.78815c-2.85851,0.38104 -5.37626,1.75824 -6.90812,3.7779l-9.32734,12.29894c-1.53123,2.01966 -1.92659,4.48326 -1.08379,6.7597c0.84343,2.27643 2.84219,4.14244 5.4842,5.1185zm3.58898,-7.78783l9.32671,-12.29945c0.09853,-0.13045 0.24286,-0.20934 0.42736,-0.23409c0.03703,-0.00464 0.0728,-0.00722 0.10857,-0.00722c0.14183,0 0.27173,0.0397 0.38657,0.11808l28.42696,19.34531c0.23784,0.16139 0.29432,0.44601 0.13116,0.66153l-4.09166,5.39487c-0.16316,0.21501 -0.49765,0.3006 -0.78131,0.19542l-33.66265,-12.44021c-0.17007,-0.06342 -0.28428,-0.16964 -0.33888,-0.31659c-0.0546,-0.14643 -0.03201,-0.2872 0.06715,-0.41765z"/>
   <path fill="rgba(148,148,148,0.075)" stroke="null" id="svg_189" d="m160.39006,160.98686l36.81109,2.23106c0.24663,0.01495 0.49138,0.02217 0.73487,0.02217c4.68971,0 8.83848,-2.72089 9.81997,-6.54056l1.59901,-6.21985c1.03295,-4.01766 -1.73833,-8.08843 -6.44561,-9.46822l-34.76464,-10.19008c-2.72798,-0.7992 -5.7415,-0.59192 -8.26991,0.56975c-2.52716,1.16168 -4.32071,3.16329 -4.91814,5.49077l-3.64546,14.17938c-0.59806,2.32851 0.05648,4.75447 1.79669,6.65657c1.74021,1.90313 4.39414,3.0942 7.28214,3.26899zm0.13116,-8.32665l3.64546,-14.17938c0.03891,-0.15004 0.1412,-0.26399 0.30374,-0.33876c0.09664,-0.04434 0.19642,-0.06651 0.29872,-0.06651c0.06966,0 0.1412,0.01083 0.21274,0.03145l34.76526,10.19008c0.29056,0.08559 0.46188,0.3367 0.3985,0.58522l-1.59901,6.21985c-0.06401,0.24801 -0.33574,0.41455 -0.65266,0.40321l-36.81109,-2.23106c-0.18638,-0.01134 -0.33762,-0.0794 -0.44996,-0.20212c-0.11296,-0.12323 -0.15061,-0.26193 -0.1117,-0.41198z"/>
   <path fill="rgba(148,148,148,0.075)" stroke="null" id="svg_190" d="m222.69743,111.74523c1.92847,1.5422 4.46191,2.32645 7.00414,2.32645c2.1795,0 4.36464,-0.57594 6.18078,-1.74484l6.09042,-3.92021s0.00063,0 0.00063,-0.00052c3.93414,-2.53269 4.99533,-7.11392 2.4688,-10.65671l-18.66033,-26.16637c-1.46408,-2.05317 -3.93539,-3.48606 -6.78073,-3.93104c-2.84659,-0.44652 -5.7848,0.14128 -8.06345,1.60872l-13.88464,8.93662c-2.27991,1.46744 -3.67621,3.67169 -3.83122,6.04763c-0.15563,2.37595 0.94572,4.69054 3.02105,6.3503l26.45456,21.14996zm-19.83888,-27.45901l13.88527,-8.93713c0.11296,-0.0727 0.23784,-0.10931 0.37277,-0.10931c0.04079,0 0.08221,0.00309 0.12488,0.01031c0.18325,0.02887 0.32445,0.11034 0.41921,0.24285l18.65908,26.16637c0.15689,0.21914 0.091,0.50272 -0.1525,0.65947l-6.08979,3.91918c-0.24224,0.15726 -0.59367,0.14179 -0.81519,-0.03558l-26.45393,-21.14996c-0.13367,-0.10725 -0.19642,-0.23924 -0.18701,-0.39238c0.01004,-0.15365 0.08974,-0.27895 0.23722,-0.37382z"/>
  </g>
 </g>

</svg>