<svg width="518" height="399" xmlns="http://www.w3.org/2000/svg" version="1.1">
<defs>
    <linearGradient id="gradientDef">
      <stop offset="5%" stop-color="rgba(249, 187, 21, 1)" />
      <stop offset="95%" stop-color="#ffa411" />
    </linearGradient>
  </defs>
 <g>
  <title>Layer 1</title>
  <g stroke="null" id="svg_198">
   <g stroke="null" id="svg_196">
    <path stroke="null" id="svg_197" fill="url(#gradientDef)" d="m439.27379,64.32348c28.08534,38.78723 14.09229,96.51896 -3.37421,139.79734c-17.56575,43.36004 -38.70419,72.18507 -66.88877,105.25629c-28.08534,33.07122 -63.11759,70.38861 -103.3104,74.47148c-40.09357,4.16452 -85.24845,-24.82383 -126.7314,-57.89504c-41.48295,-33.07122 -79.3932,-70.2253 -76.01899,-104.60303c3.37421,-34.37773 48.03289,-65.89746 89.61508,-104.68469c41.48295,-38.78723 79.79017,-84.84196 134.07527,-97.90713c54.2851,-13.06517 124.44884,6.77756 152.63343,45.56479"/>
   </g>
  </g>
  <g stroke="null" id="svg_260">
   <path stroke="null" id="svg_203" fill="#0E9347" d="m358.99987,228.86822l-190.00013,0c-5.22501,0 -9.50013,-4.10535 -9.50013,-9.12287l0,-100.35039c0,-5.01752 4.27512,-9.12287 9.50013,-9.12287l190.00054,0c5.22501,0 9.50013,4.10535 9.50013,9.12287l0,100.35039c-0.00041,5.01752 -4.27553,9.12287 -9.50054,9.12287z"/>
   <path stroke="null" id="svg_204" fill="#0D8944" d="m335.24975,192.37713c-10.92517,0 -20.90004,5.01752 -26.6002,13.22783c-4.74986,-2.28023 -9.97487,-4.10496 -16.14977,-4.10496c-16.62492,0 -30.40017,11.85977 -32.7751,27.36822l99.27519,0c4.74986,0 8.54983,-3.19279 9.50013,-7.75442c-1.90019,-15.96473 -16.15018,-28.73667 -33.25025,-28.73667z"/>
   <path stroke="null" id="svg_205" fill="#b0e6a0" d="m340.00002,219.74535l-152.00043,0c0,-10.03504 -8.54983,-18.24535 -18.99985,-18.24535l0,-63.8593c10.45002,0 18.99985,-8.21031 18.99985,-18.24535l152.00043,0c0,10.03504 8.54983,18.24535 18.99985,18.24535l0,63.8593c-10.45002,0 -18.99985,8.21031 -18.99985,18.24535z"/>
   <g stroke="null" id="svg_206">
    <path stroke="null" id="svg_207" fill="#0E9347" d="m335.24975,192.37713c-10.92517,0 -20.90004,5.01752 -26.6002,13.22783c-4.74986,-2.28023 -9.97487,-4.10496 -16.14977,-4.10496c-13.3001,0 -24.70001,7.29814 -29.92502,18.24535l77.42526,0c0,-10.03504 8.07509,-17.78946 18.52511,-18.24535c-6.17531,-5.4738 -14.24999,-9.12287 -23.27538,-9.12287z"/>
    <ellipse stroke="null" id="svg_208" fill="#0E9347" ry="41.05233" rx="38.00011" cy="169.57015" cx="263.9998"/>
    <circle stroke="null" id="svg_209" fill="#0E9347" r="9.12287" cy="169.57015" cx="206.99984"/>
    <circle stroke="null" id="svg_210" fill="#0E9347" r="9.12287" cy="169.57015" cx="320.99976"/>
   </g>
   <path stroke="null" id="svg_211" fill="#89C763" d="m268.74966,165.00891l-9.50013,0c-2.85008,0 -4.74986,-1.82473 -4.74986,-4.56124c0,-2.7369 1.90019,-4.56124 4.74986,-4.56124l14.24999,0c2.85008,0 4.74986,-1.82473 4.74986,-4.56124c0,-2.7369 -1.90019,-4.56124 -4.74986,-4.56124l-4.74986,0c0,-2.7369 -1.90019,-4.56124 -4.74986,-4.56124c-2.85008,0 -4.74986,1.82473 -4.74986,4.56124c-8.07509,0 -14.24999,5.92969 -14.24999,13.68411s6.1749,13.68411 14.24999,13.68411l9.50013,0c2.85008,0 4.74986,1.82473 4.74986,4.56124c0,2.7369 -1.90019,4.56124 -4.74986,4.56124l-14.24999,0c-2.85008,0 -4.74986,1.82473 -4.74986,4.56124c0,2.7369 1.90019,4.56124 4.74986,4.56124l4.74986,0c0,2.7369 1.90019,4.56124 4.74986,4.56124c2.85008,0 4.74986,-1.82473 4.74986,-4.56124c8.07509,0 14.24999,-5.92969 14.24999,-13.68411s-6.1749,-13.68411 -14.24999,-13.68411z"/>
   <circle stroke="null" id="svg_212" fill="#FFCA5D" r="31.92985" cy="233.42985" cx="282.99965"/>
   <circle stroke="null" id="svg_213" fill="#ffe180" r="31.92985" cy="224.30698" cx="325.75003"/>
   <path stroke="null" id="svg_214" fill="#FFCB5B" d="m325.75003,192.37713c-18.52511,0 -33.25025,14.14039 -33.25025,31.92985s14.72514,31.92985 33.25025,31.92985s33.25025,-14.14039 33.25025,-31.92985s-14.72514,-31.92985 -33.25025,-31.92985zm0,54.73683c-13.3001,0 -23.75012,-10.03504 -23.75012,-22.80698s10.45002,-22.80698 23.75012,-22.80698s23.75012,10.03504 23.75012,22.80698s-10.45002,22.80698 -23.75012,22.80698z"/>
   <path stroke="null" id="svg_215" fill="#F6B545" d="m325.75003,255.78054l0,0c18.52511,0.45628 33.25025,-14.14039 33.25025,-31.47357l-0.47515,0c-2.37493,0 -4.27512,1.82473 -4.74986,4.10535c-0.94989,6.38597 -4.27512,12.31566 -9.02498,16.42101c-3.79997,3.64907 -9.02498,5.92969 -14.72514,6.84186c-2.37534,0 -4.27512,1.82473 -4.27512,4.10535z"/>
   <path stroke="null" id="svg_216" fill="#FFE27A" d="m325.75003,192.83341l0,0c-18.52511,-0.45628 -33.25025,14.14039 -33.25025,31.47357l0.47515,0c2.37493,0 4.27512,-1.82473 4.74986,-4.10535c0.94989,-6.38597 4.27512,-12.31566 9.02498,-16.42101c3.79997,-3.64907 9.02498,-5.92969 14.72514,-6.84225c2.37493,0.00039 4.27512,-1.82434 4.27512,-4.10496z"/>
   <path stroke="null" id="svg_217" fill="#F19920" d="m305.32473,227.49977c0,-12.77194 10.45002,-22.80698 23.75012,-22.80698c5.70016,0 10.92517,1.82473 15.19988,5.4738c-4.74986,-5.4738 -10.92476,-8.66659 -18.5247,-8.66659c-13.3001,0 -23.75012,10.03504 -23.75012,22.80698c0,7.29814 3.32482,13.22783 8.54983,17.33318c-3.32482,-3.64907 -5.22501,-8.66659 -5.22501,-14.14039z"/>
   <path stroke="null" id="svg_218" fill="#FFCB5B" d="m340.00002,238.44737c-0.47515,0 -0.94989,0 -1.42504,-0.45628c-0.94989,-0.91217 -0.94989,-2.28062 0,-3.19279c2.85008,-2.7369 4.27512,-6.84225 4.27512,-10.49132c0,-1.36845 0.94989,-2.28062 2.37493,-2.28062c1.42504,0 2.37493,0.91217 2.37493,2.28062c0,5.01752 -1.90019,10.03504 -5.22501,13.68411c-0.94989,0.45628 -1.90019,0.45628 -2.37493,0.45628z"/>
   <g stroke="null" id="svg_219">
    <path stroke="null" id="svg_220" fill="#F19920" d="m325.75003,237.99109c-2.85008,0 -4.74986,-1.82473 -4.74986,-4.56124l0,-18.24535c0,-2.7369 1.90019,-4.56124 4.74986,-4.56124s4.74986,1.82473 4.74986,4.56124l0,18.24535c0,2.73651 -1.89978,4.56124 -4.74986,4.56124z"/>
    <path stroke="null" id="svg_221" fill="#F19920" d="m343.32484,251.21891c-3.32482,-11.40349 -11.87506,-20.52636 -22.80023,-24.63132c-1.90019,-10.49132 -9.02498,-19.6138 -18.04996,-25.0876c-5.70016,5.92969 -9.50013,13.68411 -9.50013,22.3507c0,17.78946 14.72514,31.92985 33.25025,31.92985c6.17531,0.45589 11.87506,-1.36845 17.10007,-4.56163z"/>
   </g>
   <g stroke="null" id="svg_222">
    <path stroke="null" id="svg_223" fill="#E78825" d="m310.54974,241.64015c-3.32482,-4.10535 -5.70016,-9.12287 -5.70016,-14.59628c0,-6.38597 2.85008,-12.31566 7.59994,-16.42101c-0.94989,-1.36845 -1.90019,-2.28062 -2.85008,-3.19279c-4.74986,4.10535 -7.59994,10.03504 -7.59994,16.87729c0.00041,7.29775 3.32523,13.22744 8.55024,17.33279z"/>
    <path stroke="null" id="svg_224" fill="#E78825" d="m320.99976,227.04388l0,6.38597c0,2.7369 1.90019,4.56124 4.74986,4.56124s4.74986,-1.82473 4.74986,-4.56124l0,-0.91217c-2.84967,-2.28101 -6.17449,-4.10535 -9.49972,-5.4738z"/>
   </g>
   <path stroke="null" id="svg_225" fill="#F6B545" d="m343.32484,251.21891c-0.94989,-3.19279 -1.90019,-5.92969 -3.79997,-8.66659c-3.79997,2.7369 -8.54983,4.56124 -13.77484,4.56124c-13.3001,0 -23.75012,-10.03504 -23.75012,-22.80698c0,-6.84225 2.85008,-12.77194 7.59994,-16.87729c-2.37493,-2.28062 -4.74986,-4.10535 -7.59994,-5.4738c-5.70016,5.92969 -9.50013,13.68411 -9.50013,22.3507c0,17.78946 14.72514,31.92985 33.25025,31.92985c6.65005,0.00039 12.3498,-1.82395 17.57481,-5.01713z"/>
   <path stroke="null" id="svg_226" fill="#F19920" d="m341.8998,247.11396c-3.32482,2.28062 -7.59994,3.64907 -11.87506,4.56124c-2.37493,0.45628 -4.27512,2.28062 -4.27512,4.56124l0,0c6.65005,0 12.35021,-1.82473 17.57522,-5.01752c-0.47474,-1.36845 -0.94989,-2.73651 -1.42504,-4.10496z"/>
   <path stroke="null" id="svg_227" fill="#FFCB5B" d="m301.99991,201.95628c-5.70016,5.92969 -9.50013,13.68411 -9.50013,22.3507l0.47515,0c2.37493,0 4.27512,-1.82473 4.74986,-4.10535c0.94989,-6.38597 4.27512,-11.85977 8.54983,-15.96473c-1.42463,-0.45628 -2.84967,-1.36845 -4.27471,-2.28062z"/>
   <circle stroke="null" id="svg_228" fill="#ffe180" r="31.92985" cy="233.42985" cx="282.99965"/>
   <path stroke="null" id="svg_229" fill="#F19920" d="m278.24979,256.23643c0,3.19279 0.47515,5.92969 1.42504,9.12287c0.94989,0 2.37493,0 3.32482,0c18.52511,0 33.25025,-14.14039 33.25025,-31.92985c0,-3.19279 -0.47515,-5.92969 -1.42504,-9.12287c-0.94989,0 -2.37493,0 -3.32482,0c-18.52511,0.00039 -33.25025,14.14078 -33.25025,31.92985z"/>
   <path stroke="null" id="svg_230" fill="#FFCB5B" d="m282.99965,201.5c-18.52511,0 -33.25025,14.14039 -33.25025,31.92985s14.72514,31.92985 33.25025,31.92985s33.25025,-14.14078 33.25025,-31.92985s-14.72514,-31.92985 -33.25025,-31.92985zm0,54.73643c-13.3001,0 -23.75012,-10.03504 -23.75012,-22.80698s10.45002,-22.80698 23.75012,-22.80698s23.75012,10.03504 23.75012,22.80698s-10.45002,22.80698 -23.75012,22.80698z"/>
   <path stroke="null" id="svg_231" fill="#F6B545" d="m282.99965,264.90302l0,0c18.52511,0.45628 33.25025,-14.14 33.25025,-31.47318l-0.47515,0c-2.37493,0 -4.27512,1.82473 -4.74986,4.10535c-0.94989,6.38597 -4.27512,12.31566 -9.02498,16.42101c-3.79997,3.64907 -9.02498,5.92969 -14.72514,6.84225c-2.37493,-0.00039 -4.27512,1.82395 -4.27512,4.10457z"/>
   <path stroke="null" id="svg_232" fill="#FFE27A" d="m282.99965,201.95628l0,0c-18.52511,-0.45628 -33.25025,14.14039 -33.25025,31.47357l0.47515,0c2.37493,0 4.27512,-1.82473 4.74986,-4.10535c0.94989,-6.38597 4.27512,-12.31566 9.02498,-16.42101c3.79997,-3.64907 9.02498,-5.92969 14.72514,-6.84225c2.37534,0 4.27512,-1.82434 4.27512,-4.10496z"/>
   <path stroke="null" id="svg_233" fill="#F19920" d="m262.57476,236.62264c0,-12.77194 10.45002,-22.80698 23.75012,-22.80698c5.70016,0 10.92517,1.82473 15.19988,5.4738c-4.74986,-5.4738 -10.92517,-8.66659 -18.52511,-8.66659c-13.3001,0 -23.75012,10.03504 -23.75012,22.80698c0,7.29814 3.32482,13.22783 8.54983,17.33318c-3.32441,-3.64907 -5.2246,-8.66659 -5.2246,-14.14039z"/>
   <path stroke="null" id="svg_234" fill="#FFCB5B" d="m297.25005,247.56984c-0.47515,0 -0.94989,0 -1.42504,-0.45628c-0.94989,-0.91217 -0.94989,-2.28062 0,-3.19279c2.85008,-2.7369 4.27512,-6.84225 4.27512,-10.49132c0,-1.36845 0.94989,-2.28062 2.37493,-2.28062c1.42504,0 2.37493,0.91217 2.37493,2.28062c0,5.01752 -1.90019,10.03504 -5.22501,13.68411c-0.9503,0.45628 -1.90019,0.45628 -2.37493,0.45628z"/>
   <path stroke="null" id="svg_235" fill="#F19920" d="m282.99965,247.11396c-2.85008,0 -4.74986,-1.82473 -4.74986,-4.56124l0,-18.24535c0,-2.7369 1.90019,-4.56124 4.74986,-4.56124c2.85008,0 4.74986,1.82473 4.74986,4.56124l0,18.24535c0.00041,2.73651 -1.89978,4.56124 -4.74986,4.56124z"/>
   <g stroke="null" id="svg_236">
    <path stroke="null" id="svg_237" fill="#F6B545" d="m304.84999,224.76287c0.94989,2.7369 1.90019,5.4738 1.90019,8.66659c0,12.77194 -10.45002,22.80698 -23.75012,22.80698c-1.42504,0 -3.32482,0 -4.74986,-0.45628l0,0.45628c0,3.19279 0.47515,5.92969 1.42504,9.12287c0.94989,0 2.37493,0 3.32482,0c18.52511,0 33.25025,-14.14039 33.25025,-31.92985c0,-3.19279 -0.47515,-5.92969 -1.42504,-9.12287c-0.94989,0 -2.37493,0 -3.32482,0c-2.37575,0.00039 -4.27553,0.00039 -6.65046,0.45628z"/>
    <circle stroke="null" id="svg_238" fill="#ffe180" r="31.92985" cy="260.79806" cx="306.74977"/>
   </g>
   <path stroke="null" id="svg_239" fill="#FFCB5B" d="m306.74977,228.86822c-18.52511,0 -33.25025,14.14039 -33.25025,31.92985s14.72514,31.92985 33.25025,31.92985s33.25025,-14.14039 33.25025,-31.92985s-14.72514,-31.92985 -33.25025,-31.92985zm0,54.73683c-13.3001,0 -23.75012,-10.03504 -23.75012,-22.80698s10.45002,-22.80698 23.75012,-22.80698s23.75012,10.03504 23.75012,22.80698s-10.45002,22.80698 -23.75012,22.80698z"/>
   <path stroke="null" id="svg_240" fill="#F6B545" d="m306.74977,292.27163l0,0c18.52511,0.45628 33.25025,-14.14039 33.25025,-31.47357l-0.47515,0c-2.37493,0 -4.27512,1.82473 -4.74986,4.10535c-0.94989,6.38597 -4.27512,12.31566 -9.02498,16.42101c-3.79997,3.64907 -9.02498,5.92969 -14.72514,6.84225c-2.37493,-0.00039 -4.27512,1.82395 -4.27512,4.10496z"/>
   <path stroke="null" id="svg_241" fill="#FFE27A" d="m306.74977,229.3245l0,0c-18.52511,-0.45628 -33.25025,14.14039 -33.25025,31.47357l0.47515,0c2.37493,0 4.27512,-1.82473 4.74986,-4.10535c0.94989,-6.38597 4.27512,-12.31566 9.02498,-16.42101c3.79997,-3.64907 9.02498,-5.92969 14.72514,-6.84225c2.37534,0.00039 4.27512,-1.82434 4.27512,-4.10496z"/>
   <path stroke="null" id="svg_242" fill="#F19920" d="m286.32488,263.99085c0,-12.77194 10.45002,-22.80698 23.75012,-22.80698c5.70016,0 10.92517,1.82473 15.19988,5.4738c-4.74986,-5.4738 -10.92517,-8.66659 -18.52511,-8.66659c-13.3001,0 -23.75012,10.03504 -23.75012,22.80698c0,7.29814 3.32482,13.22783 8.54983,17.33318c-3.32482,-3.64907 -5.2246,-8.66659 -5.2246,-14.14039z"/>
   <path stroke="null" id="svg_243" fill="#FFCB5B" d="m320.99976,274.93806c-0.47515,0 -0.94989,0 -1.42504,-0.45628c-0.94989,-0.91217 -0.94989,-2.28062 0,-3.19279c2.85008,-2.7369 4.27512,-6.84225 4.27512,-10.49132c0,-1.36845 0.94989,-2.28062 2.37493,-2.28062s2.37493,0.91217 2.37493,2.28062c0,5.01752 -1.90019,10.03504 -5.22501,13.68411c-0.94989,0.45628 -1.89978,0.45628 -2.37493,0.45628z"/>
   <path stroke="null" id="svg_244" fill="#F19920" d="m306.74977,274.48217c-2.85008,0 -4.74986,-1.82473 -4.74986,-4.56124l0,-18.24574c0,-2.7369 1.90019,-4.56124 4.74986,-4.56124c2.85008,0 4.74986,1.82473 4.74986,4.56124l0,18.24535c0.00041,2.7369 -1.89978,4.56163 -4.74986,4.56163z"/>
   <g stroke="null" id="svg_245"/>
   <g stroke="null" id="svg_246"/>
   <g stroke="null" id="svg_247"/>
   <g stroke="null" id="svg_248"/>
   <g stroke="null" id="svg_249"/>
   <g stroke="null" id="svg_250"/>
   <g stroke="null" id="svg_251"/>
   <g stroke="null" id="svg_252"/>
   <g stroke="null" id="svg_253"/>
   <g stroke="null" id="svg_254"/>
   <g stroke="null" id="svg_255"/>
   <g stroke="null" id="svg_256"/>
   <g stroke="null" id="svg_257"/>
   <g stroke="null" id="svg_258"/>
   <g stroke="null" id="svg_259"/>
  </g>
 </g>

</svg>