<svg width="518" height="399" xmlns="http://www.w3.org/2000/svg" version="1.1">
<defs>
    <linearGradient id="gradientDef">
      <stop offset="5%" stop-color="rgba(249, 187, 21, 1)" />
      <stop offset="95%" stop-color="#ffa411" />
    </linearGradient>
  </defs>
 <g>
  <title>Layer 1</title>
  <g id="svg_7">
   <g id="svg_5">
    <path id="svg_6" fill="url(#gradientDef)" d="m453.47513,42.1455c31.8,25 24.7,95.7 12.8,154.5c-11.9,58.8 -28.6,105.7 -60.5,133.5c-31.8,27.9 -78.7,36.6 -127.1,38.2c-48.5,1.5 -98.4,-4.2 -146.4,-32c-48,-27.9 -94.1,-77.8 -90.4,-124.1c3.6,-46.4 57,-89 105,-114c48,-25 90.6,-32.4 147.3,-46.4c56.7,-14 127.4,-34.7 159.3,-9.7"/>
   </g>
  </g>
  <g stroke="null" id="svg_43">
   <path stroke="null" id="svg_12" fill="#ffe180" d="m295.29854,274.90643c3.95982,-11.87481 11.87945,-22.56231 22.43916,-30.87518c19.79908,-14.84394 32.3387,-37.40625 32.3387,-62.34375c0,-46.3125 -42.8978,-84.31268 -95.69576,-81.9375c-46.85824,1.78125 -85.13666,37.40625 -86.4564,79.56231c-0.66018,26.12537 11.87945,49.28162 32.3387,64.71893c11.21927,8.31231 19.1389,18.99981 23.09872,30.87518l71.93686,0l0,0z"/>
   <path stroke="null" id="svg_13" fill="#ffffff" d="m250.42021,276.09374l5.93972,0l-26.39898,-88.46856c0.66018,0 1.31973,0 1.97991,0c3.29964,0 6.5999,-1.18731 9.23936,-3.5625c1.31973,-1.18731 2.64008,-1.78125 4.61999,-1.78125c1.97991,0 3.29964,0.59394 4.61999,1.78125c4.61999,4.74981 12.53962,4.74981 17.159,0c1.31973,-1.18731 2.64008,-1.78125 4.61999,-1.78125c1.31973,0 3.29964,0.59394 4.61999,1.78125c2.64008,2.37519 5.27955,3.5625 9.23936,3.5625c0.66018,0 1.31973,0 1.97991,0l-25.7388,88.46856l5.93972,0l27.05854,-92.625c0,-1.18731 0,-2.37519 -1.31973,-2.96856c-1.31973,-0.59394 -2.64008,0 -3.29964,0.59394c-1.31973,1.18731 -2.64008,1.78125 -3.95982,1.78125c-1.97991,0 -3.29964,-0.59394 -5.27955,-1.78125c-2.64008,-2.37519 -5.27955,-3.5625 -8.57981,-3.5625s-5.93972,1.18731 -8.57981,3.5625s-6.5999,2.37519 -9.23936,0c-1.97991,-2.37519 -5.27955,-3.5625 -8.57981,-3.5625l0,0c-3.29964,0 -6.5999,1.18731 -8.57981,3.5625c-1.31973,1.18731 -3.29964,1.78125 -5.27955,1.78125c-1.31973,0 -3.29964,-0.59394 -3.95982,-1.78125c-0.66018,-0.59394 -1.97991,-1.18731 -3.29964,-0.59394c-1.31973,0.59394 -1.97991,1.78125 -1.31973,2.96856l26.39836,92.625z"/>
   <g stroke="null" id="svg_14">
    <path stroke="null" id="svg_15" fill="#82aee3" d="m238.54076,329.53124c3.30026,7.125 11.21989,12.46875 20.45926,12.46875c9.23936,0 17.159,-5.34375 20.45926,-12.46875l-40.91851,0z"/>
    <path stroke="null" id="svg_16" fill="#82aee3" d="m283.41909,330.12518l-48.17797,0c-6.5999,0 -11.87945,-4.74981 -11.87945,-10.6875l0,-45.12518l71.93686,0l0,45.12518c0,5.93713 -5.28017,10.6875 -11.87945,10.6875z"/>
   </g>
   <g stroke="null" id="svg_17">
    <path stroke="null" id="svg_18" fill="#415A6B" d="m294.63836,296.87481l-71.27669,0c-3.95982,0 -7.25946,-2.96856 -7.25946,-6.53106l0,0c0,-3.5625 3.29964,-6.53106 7.25946,-6.53106l71.27669,0c3.95982,0 7.25946,2.96856 7.25946,6.53106l0,0c0,3.5625 -3.29964,6.53106 -7.25946,6.53106z"/>
    <path stroke="null" id="svg_19" fill="#415A6B" d="m294.63836,317.65643l-71.27669,0c-3.95982,0 -7.25946,-2.96856 -7.25946,-6.53106l0,0c0,-3.5625 3.29964,-6.53106 7.25946,-6.53106l71.27669,0c3.95982,0 7.25946,2.96856 7.25946,6.53106l0,0c0,3.56194 -3.29964,6.53106 -7.25946,6.53106z"/>
   </g>
   <g stroke="null" id="svg_20">
    <path stroke="null" id="svg_21" fill="#FFD15C" d="m259.00002,57c-3.29964,0 -6.5999,2.37519 -6.5999,5.93769l0,20.18769c0,2.96856 2.64008,5.93769 6.5999,5.93769c3.95982,0 6.5999,-2.37519 6.5999,-5.93769l0,-20.18769c0,-3.5625 -3.30026,-5.93769 -6.5999,-5.93769z"/>
    <path stroke="null" id="svg_22" fill="#FFD15C" d="m170.56433,93.21893c-2.64008,-2.37519 -6.5999,-2.37519 -9.23936,0s-2.64008,5.93769 0,8.31231l15.83926,14.25c2.64008,2.37519 6.5999,2.37519 9.23936,0s2.64008,-5.93769 0,-8.31231l-15.83926,-14.25z"/>
    <path stroke="null" id="svg_23" fill="#FFD15C" d="m150.10508,175.15643l-22.43916,0c-3.29964,0 -6.5999,2.37519 -6.5999,5.93769l0,0c0,2.96856 2.64008,5.93769 6.5999,5.93769l22.43916,0c3.29964,0 6.5999,-2.37519 6.5999,-5.93769l0,0c0,-2.96912 -3.30026,-5.93769 -6.5999,-5.93769z"/>
    <path stroke="null" id="svg_24" fill="#FFD15C" d="m177.16361,246.40643l-15.83926,14.25c-2.64008,2.37519 -2.64008,5.93769 0,8.31231s6.5999,2.37519 9.23936,0l15.83926,-14.25c2.64008,-2.37519 2.64008,-5.93769 0,-8.31231s-6.59928,-2.37519 -9.23936,0z"/>
    <path stroke="null" id="svg_25" fill="#FFD15C" d="m340.83642,246.40643c-2.64008,-2.37519 -6.5999,-2.37519 -9.23998,0c-2.64008,2.37519 -2.64008,5.93769 0,8.31231l15.83926,14.25c2.64008,2.37519 6.5999,2.37519 9.23936,0s2.64008,-5.93769 0,-8.31231l-15.83865,-14.25z"/>
    <path stroke="null" id="svg_26" fill="#FFD15C" d="m390.33412,175.15643l-22.43916,0c-3.29964,0 -6.5999,2.37519 -6.5999,5.93769l0,0c0,2.96856 2.64008,5.93769 6.5999,5.93769l22.43916,0c3.29964,0 6.5999,-2.37519 6.5999,-5.93769l0,0c-0.00062,-2.96912 -2.64008,-5.93769 -6.5999,-5.93769z"/>
    <path stroke="null" id="svg_27" fill="#FFD15C" d="m347.4357,93.21893l-15.83926,14.25c-2.64008,2.37519 -2.64008,5.93769 0,8.31231c2.64008,2.37519 6.5999,2.37519 9.23936,0l15.83926,-14.25c2.64008,-2.37519 2.64008,-5.93769 0,-8.31231s-6.59928,-2.37519 -9.23936,0z"/>
   </g>
   <g stroke="null" id="svg_28"/>
   <g stroke="null" id="svg_29"/>
   <g stroke="null" id="svg_30"/>
   <g stroke="null" id="svg_31"/>
   <g stroke="null" id="svg_32"/>
   <g stroke="null" id="svg_33"/>
   <g stroke="null" id="svg_34"/>
   <g stroke="null" id="svg_35"/>
   <g stroke="null" id="svg_36"/>
   <g stroke="null" id="svg_37"/>
   <g stroke="null" id="svg_38"/>
   <g stroke="null" id="svg_39"/>
   <g stroke="null" id="svg_40"/>
   <g stroke="null" id="svg_41"/>
   <g stroke="null" id="svg_42"/>
  </g>
 </g>

</svg>