<svg width="518" height="399" xmlns="http://www.w3.org/2000/svg" version="1.1">
<defs>
    <linearGradient id="gradientDef">
      <stop offset="5%" stop-color="rgba(249, 187, 21, 1)" />
      <stop offset="95%" stop-color="#ffa411" />
    </linearGradient>
  </defs>
 <g>
  <title>Layer 1</title>
  <g id="svg_89">
   <g id="svg_87">
    <path id="svg_88" fill="url(#gradientDef)" d="m390.33324,68.51185c50,28.5 101.5,77 110.5,134.7c9.1,57.6 -24.2,124.3 -74.2,149.3c-50,25 -116.7,8.3 -169.7,-5.4c-53.1,-13.6 -92.4,-24.3 -138.9,-49.3c-46.5,-25 -100.2,-64.3 -102.3,-105.8c-2.1,-41.5 47.3,-85.1 93.8,-113.6c46.5,-28.5 90.1,-41.9 136.2,-44.4c46.1,-2.5 94.6,6 144.6,34.5"/>
   </g>
  </g>
  <g stroke="null" id="svg_123">
   <g stroke="null" id="svg_104">
    <path stroke="null" id="svg_106" fill="#fdc8a2" d="m337.00001,172.34605l0,54.34273a78.00001,71.32483 0 0 1 -156.00001,0l0,-54.34273c0,-0.78542 0.01857,-1.57084 0.06036,-2.34778l0,-0.00425a55.71429,50.94631 0 0 1 55.65393,-48.59429l44.57143,0a55.7115,50.94376 0 0 1 55.64,48.3438c0.05107,0.86184 0.07429,1.73217 0.07429,2.60251z"/>
    <path stroke="null" id="svg_107" fill="#804a32" d="m181,179.13889l0,-27.17136a33.42857,30.56779 0 0 1 33.42857,-30.56779l0,27.17136l-33.42857,30.56779z"/>
    <path stroke="null" id="svg_108" fill="#91563a" d="m337.00001,179.13889l-26,-30.56779l-104.00001,0a37.14286,33.96421 0 0 1 -37.14286,-33.96421l0,-13.58568l111.42858,0a55.71429,50.94631 0 0 1 55.71429,50.94631l0,27.17136z"/>
    <path stroke="null" id="svg_109" fill="#fdb683" d="m177.28571,179.13889l3.71429,0a0,0 0 0 1 0,0l0,40.75705a0,0 0 0 1 0,0l-3.71429,0a22.28572,20.37852 0 0 1 -22.28572,-20.37852a22.28572,20.37852 0 0 1 22.28572,-20.37852z"/>
    <path stroke="null" id="svg_110" fill="#fdb683" d="m340.7143,219.89593l-3.71429,0a0,0 0 0 1 0,0l0,-40.75705a0,0 0 0 1 0,0l3.71429,0a-22.28572,-20.37852 0 0 1 22.28572,20.37852a-22.28572,-20.37852 0 0 1 -22.28572,20.37852z"/>
    <circle stroke="null" id="svg_111" r="10.18926" fill="#91563a" cy="199.51741" cx="218.14286"/>
    <circle stroke="null" id="svg_112" r="10.18926" fill="#91563a" cy="199.51741" cx="299.85715"/>
    <path stroke="null" id="svg_113" fill="#fdb683" d="m243.32225,227.38747l4.63771,-21.80359l7.29486,1.29743l-4.63771,21.80359l-7.29486,-1.29743z"/>
    <path stroke="null" id="svg_114" fill="#91563a" d="m234.80329,182.05132a32.3245,29.5582 0 0 0 -33.32086,0l-3.822,-5.82486a39.73868,36.33788 0 0 1 40.96486,0l-3.822,5.82486z"/>
    <path stroke="null" id="svg_115" fill="#91563a" d="m316.51758,182.05132a32.3245,29.5582 0 0 0 -33.32086,0l-3.822,-5.82486a39.73868,36.33788 0 0 1 40.96486,0l-3.822,5.82486z"/>
    <g stroke="null" id="svg_116" fill="#85ccd5">
     <path stroke="null" id="svg_117" d="m211.23893,241.74341l-6.93179,2.44118l-23.30714,-55.4126l0,-16.42594c0,-0.78542 0.01857,-1.57084 0.06036,-2.34778l30.17857,71.74514z"/>
     <path stroke="null" id="svg_118" d="m337.00001,172.34605l0,16.32405l-22.37393,53.80355l-6.94107,-2.4157l29.24072,-70.3144c0.05107,0.86184 0.07429,1.73217 0.07429,2.60251z"/>
     <path stroke="null" id="svg_119" d="m318.42858,223.29235l0,49.59199a78.12397,71.43819 0 0 1 -13.63143,11.54358l-91.59429,0a78.12397,71.43819 0 0 1 -13.63143,-11.54358l0,-49.59199l118.85715,0z"/>
    </g>
    <g stroke="null" id="svg_120" fill="#7cc1c9">
     <path stroke="null" id="svg_121" d="m199.57143,240.27446l118.85715,0l0,6.79284l-118.85715,0l0,-6.79284z"/>
     <path stroke="null" id="svg_122" d="m199.57143,260.65298l118.85715,0l0,6.79284l-118.85715,0l0,-6.79284z"/>
    </g>
   </g>
  </g>
 </g>

</svg>