<svg width="518" height="399" xmlns="http://www.w3.org/2000/svg" version="1.1">
<defs>
    <linearGradient id="gradientDef">
      <stop offset="5%" stop-color="rgba(249, 187, 21, 1)" />
      <stop offset="95%" stop-color="#ffa411" />
    </linearGradient>
  </defs>
    <g>
        <title>Layer 1</title>
        <g transform="rotate(-53 258 211.5)" stroke="null" id="svg_50">
            <g stroke="null" id="svg_48">
                <path stroke="null" id="svg_49" fill="url(#gradientDef)"
                    d="m381.85561,73.4821c48.86656,27.75977 92.04317,70.22098 104.09246,121.93545c12.04929,51.80095 -6.80562,112.94163 -55.67217,153.75974c-48.97812,40.81811 -127.85633,61.22716 -186.9871,45.92037c-59.24233,-15.30679 -98.62565,-66.32943 -130.75709,-107.06106c-32.243,-40.81811 -57.12255,-71.34521 -72.85356,-114.15234c-15.84258,-42.80713 -22.42506,-97.89428 9.70637,-125.65405c32.13143,-27.84625 103.19992,-28.45161 166.01241,-22.13864c62.81249,6.31297 117.59212,19.54426 166.45868,47.39052" />
            </g>
        </g>
        <g stroke="null" id="svg_82">
            <rect stroke="null" id="svg_55" fill="#ffe180" height="73.14285" width="242.15624" y="181.21429"
                x="139.92187" />
            <g stroke="null" id="svg_56">
                <path stroke="null" id="svg_57" fill="#82aee3"
                    d="m139.92187,254.35714l0,27.42857c0,5.05143 4.40508,9.14286 9.84375,9.14286l222.46874,0c5.43867,0 9.84375,-4.09143 9.84375,-9.14286l0,-27.42857l-242.15624,0z" />
                <path stroke="null" id="svg_58" fill="#82aee3"
                    d="m372.23436,144.64286l-57.09375,0l-16.9657,-31.51542c-1.66852,-3.09943 -5.07937,-5.056 -8.80523,-5.056l-56.73937,0c-3.72586,0 -7.13672,1.95657 -8.80523,5.056l-16.9657,31.51542l-17.71875,0l0,-9.14286c0,-5.05143 -4.40508,-9.14286 -9.84375,-9.14286l-9.84375,0c-5.43867,0 -9.84375,4.09143 -9.84375,9.14286l0,9.14286l-9.84375,0c-5.43867,0 -9.84375,4.09143 -9.84375,9.14286l0,27.42857l242.15624,0l0,-27.42857c0,-5.05143 -4.40508,-9.14286 -9.84375,-9.14286z" />
            </g>
            <path stroke="null" id="svg_59" fill="#57555C"
                d="m320.06249,217.78571c0,30.23314 -26.39011,54.85714 -59.0625,54.85714c-32.67829,0 -59.0625,-24.62994 -59.0625,-54.85714c0,-30.23314 26.39011,-54.85714 59.0625,-54.85714c32.67829,0 59.0625,24.62994 59.0625,54.85714z" />
            <path stroke="null" id="svg_60" fill="#ffffff"
                d="m260.99999,181.21429c21.71039,0 39.375,16.40686 39.375,36.57142s-17.66461,36.57142 -39.375,36.57142s-39.375,-16.40686 -39.375,-36.57142s17.66461,-36.57142 39.375,-36.57142z" />
            <path  stroke="null" id="svg_61"
                d="m332.85936,167.5c2.71687,0 4.92187,-2.048 4.92187,-4.57143s-2.205,-4.57143 -4.92187,-4.57143s-4.92187,2.048 -4.92187,4.57143s2.205,4.57143 4.92187,4.57143z" />
            <path fill="rgba(148,148,148,0.075)" stroke="null" id="svg_62"
                d="m372.23436,140.07144l-54.05203,0l-15.6053,-28.9888c-2.51852,-4.67703 -7.57919,-7.58263 -13.20736,-7.58263l-56.73937,0c-5.62915,0 -10.68982,2.9056 -13.20736,7.58308l-15.6053,28.98834l-9.75516,0l0,-4.57143c0,-7.56206 -6.62386,-13.71428 -14.76562,-13.71428l-9.84375,0c-8.14177,0 -14.76562,6.15223 -14.76562,13.71428l0,4.57143l-4.92187,0c-8.14177,0 -14.76562,6.15223 -14.76562,13.71428c0,12.42286 0,123.16753 0,127.99998c0,7.56206 6.62386,13.71428 14.76562,13.71428l222.46874,0c8.14177,0 14.76562,-6.15223 14.76562,-13.71428c0,-12.42286 0,-123.16753 0,-127.99998c0,-7.56206 -6.62386,-13.71428 -14.76562,-13.71428zm-227.39061,45.66857l62.2376,0c-6.54117,9.49074 -10.06573,20.61348 -10.06573,32.04571c0,11.43314 3.52505,22.51108 10.06523,32l-62.23711,0l0,-64.04571zm62.01562,32.04571c0,-27.97943 24.50601,-50.28571 54.14062,-50.28571c29.59671,0 54.14062,22.27154 54.14062,50.28571c0,27.98263 -24.50946,50.28571 -54.14062,50.28571c-29.65774,0 -54.14062,-22.32777 -54.14062,-50.28571zm118.12499,0c0,-11.43268 -3.52455,-22.50925 -10.06573,-32l62.2376,0l0,63.99999l-62.2376,0c6.54117,-9.49074 10.06573,-20.56731 10.06573,-32zm-96.75667,-102.61393c0.83967,-1.55977 2.5264,-2.52891 4.40262,-2.52891l56.73937,0c1.87622,0 3.56344,0.96914 4.40311,2.52891l13.40423,24.89965l-92.35406,0l13.40473,-24.89965zm-63.69644,20.32823c0,-2.52069 2.20795,-4.57143 4.92187,-4.57143l9.84375,0c2.71392,0 4.92187,2.05074 4.92187,4.57143l0,4.57143l-19.6875,0l0,-4.57143zm-14.76562,13.71428c4.46955,0 215.54957,0 222.46874,0c2.71392,0 4.92187,2.05074 4.92187,4.57143l0,22.85714l-70.00186,0c-12.02611,-11.64434 -28.71815,-18.28571 -46.15439,-18.28571c-17.4382,0 -34.13172,6.6432 -46.15488,18.28571l-70.00136,0l0,-22.85714c0,-2.52069 2.20795,-4.57143 4.92187,-4.57143zm222.46874,137.14284l-222.46874,0c-2.71392,0 -4.92187,-2.05074 -4.92187,-4.57143l0,-22.85714l70.00186,0c12.0266,11.64434 28.71865,18.28571 46.15439,18.28571c17.43869,0 34.13222,-6.6432 46.15488,-18.28571l70.00136,0l0,22.85714c0,2.52069 -2.20795,4.57143 -4.92187,4.57143z" />
            <path stroke="null" id="svg_63"
                d="m275.76562,121.78572l-29.53125,0c-2.71835,0 -4.92187,2.04663 -4.92187,4.57143s2.20352,4.57143 4.92187,4.57143l29.53125,0c2.71786,0 4.92187,-2.04663 4.92187,-4.57143s-2.20402,-4.57143 -4.92187,-4.57143z" />
            <path stroke="null" id="svg_64"
                d="m260.99999,258.92856c24.4253,0 44.29687,-18.45668 44.29687,-41.14285s-19.87158,-41.14285 -44.29687,-41.14285s-44.29687,18.45668 -44.29687,41.14285s19.87158,41.14285 44.29687,41.14285zm0,-73.14285c18.99745,0 34.45312,14.3552 34.45312,32s-15.45567,32 -34.45312,32s-34.45312,-14.3552 -34.45312,-32s15.45567,-32 34.45312,-32z" />
            <path stroke="null" id="svg_65"
                d="m241.31249,222.35714c2.71835,0 4.92187,-2.04663 4.92187,-4.57143c0,-7.56206 6.62386,-13.71428 14.76562,-13.71428c2.71786,0 4.92187,-2.04663 4.92187,-4.57143s-2.20402,-4.57143 -4.92187,-4.57143c-13.56961,0 -24.60937,10.25371 -24.60937,22.85714c0,2.5248 2.20352,4.57143 4.92187,4.57143z" />
            <path  stroke="null" id="svg_66"
                d="m352.54686,167.5l9.84375,0c2.71786,0 4.92187,-2.04663 4.92187,-4.57143s-2.20402,-4.57143 -4.92187,-4.57143l-9.84375,0c-2.71786,0 -4.92187,2.04663 -4.92187,4.57143s2.20402,4.57143 4.92187,4.57143z" />
            <g stroke="null" id="svg_67" />
            <g stroke="null" id="svg_68" />
            <g stroke="null" id="svg_69" />
            <g stroke="null" id="svg_70" />
            <g stroke="null" id="svg_71" />
            <g stroke="null" id="svg_72" />
            <g stroke="null" id="svg_73" />
            <g stroke="null" id="svg_74" />
            <g stroke="null" id="svg_75" />
            <g stroke="null" id="svg_76" />
            <g stroke="null" id="svg_77" />
            <g stroke="null" id="svg_78" />
            <g stroke="null" id="svg_79" />
            <g stroke="null" id="svg_80" />
            <g stroke="null" id="svg_81" />
        </g>
    </g>

</svg>