<svg width="518" height="399" xmlns="http://www.w3.org/2000/svg" version="1.1">
<defs>
    <linearGradient id="gradientDef">
      <stop offset="5%" stop-color="rgba(249, 187, 21, 1)" />
      <stop offset="95%" stop-color="#ffa411" />
    </linearGradient>
  </defs>
    <g>
        <title>Layer 1</title>
        <g transform="rotate(-0.256913 259 199.5)" stroke="null" id="svg_7">
            <g stroke="null" id="svg_5">
                <path stroke="null" id="svg_6" fill="url(#gradientDef)"
                    d="m384.61587,96.4098c43.27738,38.17628 83.47684,83.16974 92.80386,137.2528c9.42029,54.08306 -12.2184,117.3466 -55.40251,140.07057c-43.18411,22.72397 -108.10018,4.90838 -165.92771,-1.90881c-57.73426,-6.81719 -108.56653,-2.81777 -146.06115,-25.54175c-37.40135,-22.72397 -61.55834,-72.26224 -69.11323,-129.07217c-7.64816,-56.90083 1.30578,-121.16423 38.80041,-159.3405c37.49463,-38.17628 103.43666,-50.26543 159.49206,-40.63047c56.0554,9.63496 102.22415,40.99405 145.40826,79.17032" />
            </g>
        </g>
        <g stroke="null" id="svg_60">
            <g stroke="null" id="svg_12">
                <path transform="rotate(-0.267735 321.626 141.341)" stroke="null" id="svg_13" fill="#ff641a"
                    d="m392.35174,86.92375l-15.65893,4.20316l4.58754,-14.34688l-41.0149,0l-18.90084,7.14283l-0.08195,0.03061l-3.15997,-7.17344l-67.22324,0l0,61.59067l7.82946,5.08406l-7.82946,15.20339l0,37.10007l15.65893,-4.20316l-4.58754,14.34688l40.49294,0l18.65343,-7.17344l0.24741,0.50884l3.24192,6.6646l67.74521,0l0,-61.59067l-7.82946,-0.78095l7.82946,-19.50649l0,-37.10007z" />
                <g stroke="null" id="svg_14" fill="#f03800">
                    <path transform="rotate(-0.267735 356.858 141.176)" stroke="null" id="svg_15"
                        d="m392.35136,205.73729l0,-61.59067l-7.82946,-0.78095l7.82946,-19.50649l0,-37.10007l-15.65893,4.20316l4.58754,-14.34688l-41.0149,0l-18.90084,7.14283l0,115.31446l3.24192,6.6646l67.74521,0z" />
                    <path transform="rotate(-0.267735 347.518 164.842)" stroke="null" id="svg_16"
                        d="m302.57387,205.7812l18.90084,0l3.24192,0l67.74521,-61.59067l0,-20.28744l-70.98713,64.56095l-18.90084,17.31716z" />
                    <path transform="rotate(-0.267735 295.472 117.841)" stroke="null" id="svg_17"
                        d="m340.15536,76.90199l-18.90084,0l-3.24192,0l-67.22324,61.59067l0,20.28744l70.46516,-64.56095l18.90084,-17.31716z" />
                    <path transform="rotate(-0.267735 321.626 141.341)" stroke="null" id="svg_18"
                        d="m381.28036,76.78003l-59.91574,54.41723l-70.46516,64.56095l0,10.14372l11.07138,0l59.39378,-54.41723l70.98713,-64.56095l0,-10.14372l-11.07138,0z" />
                </g>
                <path transform="rotate(-0.267735 356.731 113.968)" stroke="null" id="svg_19" fill="#cd0000"
                    d="m392.22422,76.61569l-11.07138,0l-59.91574,54.41723l0,20.28744l70.98713,-64.56095l0,-10.14372z" />
                <path transform="rotate(-0.267735 356.968 164.798)" stroke="null" id="svg_20" fill="#cd0000"
                    d="m392.46174,144.14637l0,-20.28744l-70.98713,64.56095l0,17.31716l3.24192,0l67.74521,-61.59067z" />
                <g transform="rotate(-0.267735 258.998 199.022)" stroke="null" id="svg_21">
                    <path stroke="null" id="svg_22" fill="#acc9e0"
                        d="m188.5326,134.46082l140.93033,0l0,129.1219l-140.93033,0l0,-129.1219z" />
                </g>
                <path transform="rotate(-0.267735 294.23 198.857)" stroke="null" id="svg_23" fill="#82aee3"
                    d="m258.99738,134.29619l70.46516,0l0,129.1219l-70.46516,0l0,-129.1219z" />
                <g transform="rotate(-0.267735 196.37 256.703)" stroke="null" id="svg_24">
                    <path stroke="null" id="svg_25" fill="#fed843"
                        d="m227.94876,228.85623l-31.31785,14.34688l-31.31785,-14.34688l-27.84366,12.51622l-11.82562,12.59082l0,26.997l15.50338,0.07173l24.1659,-10.82998l31.31785,14.34688l31.31785,-14.34688l26.01835,11.91747l13.12896,-1.15923l0,-26.99843l-11.42997,-12.40909l-27.71734,-12.69651z" />
                </g>
                <g transform="rotate(-0.267735 196.559 297.058)" stroke="null" id="svg_26">
                    <path stroke="null" id="svg_27" fill="#fed843"
                        d="m228.13734,271.89642l-31.31785,14.34688l-31.31785,-14.34688l-28.43713,12.78689l-11.23215,12.31871l0,25.21751l70.98713,0l70.46516,0l0,-25.21751l-10.6392,-12.04755l-28.50812,-13.05805z" />
                </g>
                <g transform="rotate(-0.267735 196.184 216.825)" stroke="null" id="svg_28">
                    <path stroke="null" id="svg_29" fill="#fed843"
                        d="m196.44457,192.14205l-70.98713,0l0,45.77993l12.93218,1.24866l26.73709,-12.00881l31.31785,14.34688l31.31785,-14.34688l28.39224,13.00497l10.75507,-2.24672l0,-45.77802l-70.46516,0z" />
                </g>
                <g transform="rotate(-0.267735 231.863 256.537)" stroke="null" id="svg_30">
                    <path stroke="null" id="svg_31" fill="#fabe2c"
                        d="m253.96673,281.95363l13.12896,-1.15923l0,-26.99843l-11.42997,-12.40909l-27.71734,-12.69651l-31.31785,14.34688l0,41.34579l31.31785,-14.34688l26.01835,11.91747z" />
                </g>
                <g transform="rotate(-0.267735 232.052 296.892)" stroke="null" id="svg_32">
                    <path stroke="null" id="svg_33" fill="#fabe2c"
                        d="m267.28427,296.83616l-10.6392,-12.04755l-28.50812,-13.05805l-31.31785,14.34688l0,35.97623l70.46516,0l0,-25.21751z" />
                </g>
                <g transform="rotate(-0.267735 231.677 216.66)" stroke="null" id="svg_34">
                    <path stroke="null" id="svg_35" fill="#fabe2c"
                        d="m256.15428,240.00093l10.75507,-2.24672l0,-45.77802l-70.46516,0l0,49.36665l31.31785,-14.34688l28.39224,13.00497z" />
                </g>
                <g transform="rotate(-0.267735 227.546 170.475)" stroke="null" id="svg_36">
                    <path stroke="null" id="svg_37" fill="#77b2e3"
                        d="m219.71671,163.30123l15.65893,0l0,14.34688l-15.65893,0l0,-14.34688z" />
                </g>
                <g transform="rotate(-0.267735 258.864 170.328)" stroke="null" id="svg_38">
                    <path stroke="null" id="svg_39" fill="#77b2e3"
                        d="m251.03422,163.15489l15.65893,0l0,14.34688l-15.65893,0l0,-14.34688z" />
                </g>
                <g transform="rotate(-0.267735 290.181 170.182)" stroke="null" id="svg_40">
                    <path stroke="null" id="svg_41" fill="#935ed0"
                        d="m282.35173,163.00855l15.65893,0l0,14.34688l-15.65893,0l0,-14.34688z" />
                </g>
                <g transform="rotate(-0.267735 290.315 198.875)" stroke="null" id="svg_42">
                    <path stroke="null" id="svg_43" fill="#935ed0"
                        d="m282.48581,191.70199l15.65893,0l0,14.34688l-15.65893,0l0,-14.34688z" />
                </g>
                <g transform="rotate(-0.267735 290.449 227.569)" stroke="null" id="svg_44">
                    <path stroke="null" id="svg_45" fill="#935ed0"
                        d="m282.61989,220.39543l15.65893,0l0,14.34688l-15.65893,0l0,-14.34688z" />
                </g>
                <g transform="rotate(-0.267735 196.378 258.495)" stroke="null" id="svg_46">
                    <g stroke="null" id="svg_47">
                        <g stroke="null" id="svg_48">
                            <g stroke="null" id="svg_49">
                                <path stroke="null" id="svg_50" fill="#ebc136"
                                    d="m227.95714,219.98793l-31.31785,14.34688l-31.31785,-14.34688l-39.66928,17.9336l0,16.04172l39.66928,-17.9336l31.31785,14.34688l31.31785,-14.34688l39.14731,17.93216l0,-16.0422l-39.14731,-17.93168z" />
                            </g>
                        </g>
                        <g stroke="null" id="svg_51">
                            <g stroke="null" id="svg_52">
                                <path stroke="null" id="svg_53" fill="#ebc136"
                                    d="m196.63929,277.37544l-31.31785,-14.34688l-39.66928,17.93168l0,16.0422l39.66928,-17.93216l31.31785,14.34688l31.31785,-14.34688l39.14731,17.93216l0,-16.0422l-39.14731,-17.93168l-31.31785,14.34688z" />
                            </g>
                        </g>
                    </g>
                </g>
                <g transform="rotate(-0.267735 231.771 236.809)" stroke="null" id="svg_54">
                    <path stroke="null" id="svg_55" fill="#ff9100"
                        d="m267.00351,253.79619l0,-16.0422l-39.14731,-17.93168l-31.31785,14.34688l0,16.04172l31.31785,-14.34688l39.14731,17.93216z" />
                </g>
                <g transform="rotate(-0.267735 231.972 279.849)" stroke="null" id="svg_56">
                    <path stroke="null" id="svg_57" fill="#ff9100"
                        d="m267.20463,296.83635l0,-16.0422l-39.14731,-17.93168l-31.31785,14.34688l0,16.04172l31.31785,-14.34688l39.14731,17.93216z" />
                </g>
                <path transform="rotate(-0.267735 262.778 170.31)" stroke="null" id="svg_58" fill="#77b2e3"
                    d="m258.86364,163.1366l7.82946,0l0,14.34688l-7.82946,0l0,-14.34688z" />
                <path transform="rotate(-0.267735 330.554 85.3963)" stroke="null" id="svg_59" fill="#cd0000"
                    d="m321.10329,76.7377l0,17.31716l18.90084,-17.31716l-18.90084,0z" />
            </g>
        </g>
    </g>

</svg>