<svg width="518" height="399"
    xmlns="http://www.w3.org/2000/svg" version="1.1">
    <g>
        <title>Layer 1</title>
        <g transform="rotate(-180 259 199.5)" id="svg_1" stroke="null">
            <path d="m341.52579,57.26321c50.31079,19.01133 117.1563,32.49455 148.6712,69.84306c31.65623,37.48334 27.98184,98.83197 -4.66364,137.79846c-32.64548,38.83166 -94.40339,55.28118 -143.0183,69.43856c-48.61492,14.15738 -84.08685,26.02261 -127.8968,36.94401c-43.66863,10.9214 -95.81661,20.76415 -121.53729,-0.4045c-25.72068,-21.30348 -25.15539,-73.61836 -42.67938,-121.34894c-17.38266,-47.59575 -52.85459,-90.47238 -42.67938,-118.92196c10.31654,-28.44958 65.99758,-42.47213 109.52489,-63.50595c43.38599,-21.16865 74.61825,-49.4834 107.12241,-51.37105c32.64548,-1.88765 66.70419,22.51697 117.1563,41.5283" fill="#feaa00" id="svg_2" stroke="null"/>
        </g>
        <g id="svg_50" stroke="null">
            <g id="svg_7" stroke="null">
                <g id="svg_8" stroke="null">
                    <path d="m382.41292,248.3043l-12.32522,0l-8.68965,-7.58789l-8.68965,7.58789l-187.41738,0l-8.68965,-7.58789l-8.68965,7.58789l-12.32522,0c-6.39893,0 -11.58601,-4.59674 -11.58601,-10.26743l0,-37.79984c0,-5.67068 5.18707,-10.26743 11.58601,-10.26743l12.32522,0l8.68965,7.58789l8.68965,-7.58789l187.41738,0l9.40831,7.58789l7.97098,-7.58789l12.32579,0c6.39893,0 11.58601,4.59674 11.58601,10.26743l0,37.79984c0,5.67068 -5.18765,10.26743 -11.58658,10.26743l0.00001,0z" fill="#c59191" id="svg_9" stroke="null"/>
                    <path d="m370.0877,190.99498c3.86676,1.66377 6.53251,5.17696 6.53251,9.24205l0,37.79984c0,4.06509 -2.66575,7.57828 -6.53251,9.24205l0,1.02588l12.32579,0c6.39893,0 11.58601,-4.59674 11.58601,-10.26743l0,-37.79984c0,-5.67068 -5.18707,-10.26743 -11.58601,-10.26743l-12.32579,0l0,1.02487l0,0.00001z" fill="#b98080" id="svg_10" stroke="null"/>
                    <g fill="#eaf6ff" id="svg_11" stroke="null">
                        <path d="m352.7084,189.9691l17.3793,0l0,58.3352l-17.3793,0l0,-58.3352z" id="svg_12" stroke="null"/>
                        <path d="m147.91173,189.9691l17.3793,0l0,58.3352l-17.3793,0l0,-58.3352z" id="svg_13" stroke="null"/>
                    </g>
                </g>
                <path d="m230.80502,220.04143c-1.39338,1.03347 -3.07503,9.37459 -4.94562,9.7388l-14.10448,-4.84107l-28.57486,5.56546c-15.94139,3.10496 -27.29736,15.62043 -27.29736,30.08497l0,49.1584l206.23401,0l0,-49.1584c0,-14.46404 -11.35654,-26.98001 -27.29736,-30.08497l-28.57486,-5.56546l-14.10448,4.84107c-1.87059,-0.36422 -3.55224,-8.70533 -4.94562,-9.7388l-56.38938,0l0.00001,0z" fill="#ffe180" id="svg_14" stroke="null"/>
                <path d="m292.14002,222.19234c-1.87059,-0.36422 -3.55224,-1.11744 -4.94562,-2.15091c-2.56414,-1.90203 -12.71567,-4.75305 -12.71567,-7.87724l8.56235,-7.10479l0,-24.16945l-48.08276,0l0,31.27425c0,4.82135 -3.7857,8.99317 -9.09893,10.02816l33.14031,30.80279l33.14031,-30.80279l0.00001,-0.00002z" fill="#ffcebf" id="svg_15" stroke="null"/>
                <g id="svg_16" stroke="null">
                    <path d="m287.1944,220.04143c-2.56414,-1.90203 -4.15331,-4.75305 -4.15331,-7.87724l0,-31.27425l-17.3793,7.7007l0,31.27425c0,4.82135 3.7857,8.99317 9.09893,10.02816l1.07829,0.20993" fill="#ffb09e" id="svg_17" stroke="null"/>
                    <path d="m295.98908,234.02794l21.45098,4.17789c15.94139,3.10496 27.29736,15.62043 27.29736,30.08497l0,41.4577l17.3793,0l0,-49.1584c0,-14.46404 -11.35654,-26.98001 -27.29736,-30.08497l-28.57486,-5.56546l-10.25542,9.08827z" fill="#fbd270" id="svg_18" stroke="null"/>
                </g>
                <g id="svg_19" stroke="null">
                    <g id="svg_20" stroke="null">
                        <path d="m308.00378,133.31538l0,33.88297c0,11.99241 -5.48619,22.85017 -14.34936,30.70516c-3.14524,2.78729 -6.71574,5.19771 -10.61846,7.14729c-2.4808,1.23986 -5.09631,-5.29432 -7.82143,-4.44752c-3.0579,0.95 -6.25394,9.22637 -9.55445,9.62397c-2.17769,0.26204 -4.40105,0.39761 -6.66037,0.39761c-9.15886,0 -17.72693,-2.2278 -25.06087,-6.10421c-1.12966,-0.59034 -2.2245,-1.22671 -3.29023,-1.8995c-12.4959,-7.8651 -20.6524,-20.80195 -20.6524,-35.42331l0,-33.88297l98.00756,0l0,0.00051l0.00001,0z" fill="#ffcebf" id="svg_21" stroke="null"/>
                        <path d="m308.00378,133.31538l0,33.88297c0,11.99241 -5.48619,22.85017 -14.34936,30.70516c-8.86946,7.85954 -21.12162,12.72135 -34.65413,12.72135c-9.15886,0 -17.72693,-2.2278 -25.06087,-6.10421c-1.10055,-0.64194 -2.19539,-1.27325 -3.29023,-1.8995c17.30395,6.28884 36.50817,3.29062 48.41269,-7.41337c12.0615,-10.85271 11.69618,-25.18623 11.56317,-28.00994l0,-33.88297l17.37872,0l0,0.00051l0.00001,0z" fill="#ffb09e" id="svg_22" stroke="null"/>
                        <path d="m308.00264,121.58602l-98.00585,0l0,-27.68771c0,-13.19888 12.07349,-23.89831 26.96742,-23.89831l44.07158,0c14.89393,0 26.96742,10.69943 26.96742,23.89831l0,27.68771l-0.00057,0z" fill="#c59191" id="svg_23" stroke="null"/>
                        <path d="m281.03522,70l-17.3793,0c14.89393,0 26.96742,10.69943 26.96742,23.89831l0,27.68771l17.3793,0l0,-27.68771c0,-13.19888 -12.07349,-23.89831 -26.96742,-23.89831z" fill="#b98080" id="svg_24" stroke="null"/>
                        <path d="m196.73142,139.50963l124.53659,0c3.48202,0 6.30475,-2.50147 6.30475,-5.58722l0,-6.74918c0,-3.08574 -2.82272,-5.58722 -6.30475,-5.58722l-124.53659,0c-3.48202,0 -6.30475,2.50147 -6.30475,5.58722l0,6.74918c0,3.08574 2.82272,5.58722 6.30475,5.58722z" fill="#685e68" id="svg_25" stroke="null"/>
                        <path d="m321.26801,121.58602l-17.3793,0c3.48202,0 6.30475,2.50147 6.30475,5.58722l0,6.74918c0,3.08574 -2.82272,5.58722 -6.30475,5.58722l17.3793,0c3.48202,0 6.30475,-2.50147 6.30475,-5.58722l0,-6.74918c0,-3.08574 -2.82272,-5.58722 -6.30475,-5.58722z" fill="#554e56" id="svg_26" stroke="null"/>
                    </g>
                    <g id="svg_27" stroke="null">
                        <g id="svg_28" stroke="null">
                            <path d="m235.35677,164.36351c-2.39974,0 -4.34454,-1.72397 -4.34454,-3.8501l0,-8.38057c0,-2.12663 1.94537,-3.8501 4.34454,-3.8501s4.34454,1.72397 4.34454,3.8501l0,8.38057c0.00057,2.12613 -1.9448,3.8501 -4.34454,3.8501z" fill="#554e56" id="svg_29" stroke="null"/>
                        </g>
                        <g id="svg_30" stroke="null">
                            <path d="m282.64266,164.36351c-2.39974,0 -4.34511,-1.72397 -4.34511,-3.8501l0,-8.38057c0,-2.12663 1.94537,-3.8501 4.34511,-3.8501s4.34511,1.72397 4.34511,3.8501l0,8.38057c-0.00057,2.12613 -1.94594,3.8501 -4.34511,3.8501z" fill="#554e56" id="svg_31" stroke="null"/>
                        </g>
                    </g>
                    <g id="svg_32" stroke="null">
                        <path d="m259.00028,191.06479c-0.08391,0 -0.16725,-0.00051 -0.25173,-0.00101c-4.97016,-0.04603 -8.88544,-1.45232 -11.29546,-2.62339c-2.10406,-1.02285 -2.8741,-3.36295 -1.71989,-5.22755c1.15363,-1.86409 3.79426,-2.54751 5.89889,-1.52415c1.53837,0.74766 4.03744,1.64556 7.20722,1.6749c3.30621,0.03187 5.92115,-0.89385 7.52745,-1.6749c2.10406,-1.02234 4.74526,-0.33994 5.89889,1.52415c1.15421,1.8646 0.38416,4.2047 -1.71989,5.22755c-2.47566,1.20293 -6.47371,2.6244 -11.54548,2.6244z" fill="#ffb09e" id="svg_33" stroke="null"/>
                    </g>
                    <path d="m314.02197,160.00907l-6.01876,0l0,-20.49945l6.01876,0c6.38752,0 11.56603,4.58916 11.56603,10.24972c0,5.66107 -5.17851,10.24972 -11.56603,10.24972l0,0.00001z" fill="#ffcebf" id="svg_34" stroke="null"/>
                    <path d="m203.97745,160.00907l6.01876,0l0,-20.49945l-6.01876,0c-6.38809,0 -11.56603,4.58916 -11.56603,10.24972c0,5.66107 5.17851,10.24972 11.56603,10.24972l0,0.00001z" fill="#ffb09e" id="svg_35" stroke="null"/>
                </g>
                <path d="m306.2445,224.93967l-14.10448,-2.74682c-1.87116,-0.36422 -3.54596,-1.12402 -4.93934,-2.15749l-27.38184,24.26557c-0.45266,0.40115 -1.18617,0.40115 -1.63826,0l-27.38184,-24.26557c-1.39338,1.03347 -3.06875,1.79327 -4.93934,2.15749l-14.10448,2.74682l39.05233,34.60786c4.52492,4.00995 11.86057,4.00995 16.38549,0l39.05176,-34.60786z" fill="#82aee3" id="svg_36" stroke="null"/>
                <path d="m275.83958,230.10348l20.1495,3.92446l10.25542,-9.08827l-14.10448,-2.74682c-1.87059,-0.36422 -3.55224,-1.11744 -4.94562,-2.15091l-11.35482,10.06154z" fill="#528fd8" id="svg_37" stroke="null"/>
                <g id="svg_38" stroke="null">
                    <g id="svg_39" stroke="null">
                        <path d="m151.3361,329c-3.19947,0 -5.79329,-2.29862 -5.79329,-5.13397l0,-58.48847c0,-3.75955 4.54433,-6.24433 8.50242,-4.64834l48.22546,19.4422l0,48.82858l-50.93459,0z" fill="#8ddaa7" id="svg_40" stroke="null"/>
                        <path d="m315.72588,280.17243l0,48.82757l-113.45234,0l0,-48.82757l51.65725,-20.82775c1.60459,-0.64699 3.33703,-0.97024 5.06891,-0.97024s3.46433,0.32324 5.06891,0.97024l51.65725,20.82775l0.00002,0z" fill="#8ddaa7" id="svg_41" stroke="null"/>
                        <path d="m315.72816,329l0,-48.82858l48.22546,-19.4422c3.95809,-1.59599 8.50242,0.88879 8.50242,4.64834l0,58.48847c0,2.83534 -2.59382,5.13397 -5.79329,5.13397l-50.93459,0z" fill="#b0e6a0" id="svg_42" stroke="null"/>
                        <path d="m363.95363,260.72922l-9.00474,3.63005c0.07592,0.3283 0.12786,0.66521 0.12786,1.01829l0,58.48847c0,2.83534 -2.59382,5.13397 -5.79329,5.13397l17.3793,0c3.19947,0 5.79329,-2.29862 5.79329,-5.13397l0,-58.48847c0,-3.76005 -4.54433,-6.24433 -8.50242,-4.64834z" fill="#8ddaa7" id="svg_43" stroke="null"/>
                    </g>
                    <path d="m258.99971,258.37444l0,70.62556l-56.72617,0l0,-48.82757l51.65725,-20.82775c1.60459,-0.64699 3.33703,-0.97024 5.06891,-0.97024l0.00001,0z" fill="#b0e6a0" id="svg_44" stroke="null"/>
                </g>
                <g id="svg_45" stroke="null">
                    <path d="m382.56419,317.4487l-16.91978,0c-5.59008,0 -10.12184,-4.01602 -10.12184,-8.9699l0,-18.50029c0,-4.95388 4.53177,-8.9704 10.12242,-8.9704l16.91864,0c1.91055,0 3.5568,1.17966 3.96494,2.83382c1.11881,4.53301 2.01215,10.24466 1.86317,16.83095c-0.12101,5.34036 -0.89962,10.04333 -1.8626,13.9425c-0.40871,1.65365 -2.05497,2.83332 -3.96494,2.83332l-0.00001,0z" fill="#ffcebf" id="svg_46" stroke="null"/>
                    <path d="m386.52856,283.84193c-0.40814,-1.65416 -2.05439,-2.83382 -3.96494,-2.83382l-16.91864,0c-0.09818,0 -0.19351,0.01062 -0.29112,0.01315c1.83634,0.06829 3.39925,1.21659 3.79541,2.82067c1.11881,4.53301 2.01215,10.24466 1.86317,16.83095c-0.12101,5.34036 -0.89962,10.04333 -1.8626,13.9425c-0.39615,1.60408 -1.95907,2.75238 -3.79541,2.82067c0.09761,0.00253 0.19237,0.01315 0.29055,0.01315l16.91978,0c1.91055,0 3.55623,-1.17966 3.96494,-2.83382c0.96298,-3.89916 1.74158,-8.60214 1.8626,-13.9425c0.14841,-6.58629 -0.74492,-12.29795 -1.86374,-16.83095z" fill="#ffb09e" id="svg_47" stroke="null"/>
                    <path d="m135.43524,317.4487l16.91978,0c5.59008,0 10.12184,-4.01602 10.12184,-8.9699l0,-18.50029c0,-4.95388 -4.53177,-8.9704 -10.12242,-8.9704l-16.91864,0c-1.91055,0 -3.5568,1.17966 -3.96494,2.83382c-1.11881,4.53301 -2.01215,10.24466 -1.86317,16.83095c0.12101,5.34036 0.89962,10.04333 1.8626,13.9425c0.40871,1.65365 2.05497,2.83332 3.96494,2.83332l0.00001,0z" fill="#ffcebf" id="svg_48" stroke="null"/>
                    <path d="m152.35502,281.00811l-16.91921,0c-0.05765,0 -0.11245,0.01113 -0.16953,0.01315c5.45479,0.13759 9.8313,4.08987 9.8313,8.95725l0,18.50029c0,4.86687 -4.37708,8.81966 -9.83187,8.95725c0.05708,0.00202 0.11188,0.01315 0.16896,0.01315l16.91978,0c5.59008,0 10.12184,-4.01602 10.12184,-8.9699l0,-18.50029c0.00057,-4.95489 -4.5312,-8.97091 -10.12127,-8.97091l0,0.00001z" fill="#ffb09e" id="svg_49" stroke="null"/>
                </g>
            </g>
        </g>
    </g>

</svg>