<svg id="visual" viewBox="0 0 900 600" width="900" height="600"
    xmlns="http://www.w3.org/2000/svg"
    xmlns:xlink="http://www.w3.org/1999/xlink" version="1.1">
    <g transform="translate(424.49538328786684 298.10825945873444)">
        <path d="M83.9 -103.6C119.5 -89.5 166.8 -79.5 189.1 -51.8C211.5 -24 208.9 21.5 185.8 50.4C162.7 79.2 119 91.4 84.6 101.9C50.2 112.4 25.1 121.2 -5.9 129.3C-36.8 137.4 -73.7 144.7 -91.9 129C-110.1 113.2 -109.7 74.4 -122.1 39C-134.4 3.7 -159.5 -28.1 -152.3 -49.2C-145 -70.3 -105.6 -80.7 -74.8 -96.3C-44.1 -112 -22 -133 1 -134.4C24.1 -135.8 48.2 -117.7 83.9 -103.6" fill="#BB004B"></path>
    </g>
</svg>