<svg width="569.2700073242187px" height="92.01617279052734px"
  xmlns="http://www.w3.org/2000/svg" viewBox="-34.63500366210934 28.991913604736332 569.2700073242187 92.01617279052734" style="background: rgba(0, 0, 0, 0);" preserveAspectRatio="xMidYMid">
  <defs>
    <linearGradient id="editing-gradow-gradient" x1="0" x2="1" y1="0.5" y2="0.5" gradientUnits="objectBoundingBox">
      <stop offset="0" stop-color="#f9bb15"></stop>
      <stop offset="1" stop-color="#ffcc7c"></stop>
    </linearGradient>
    <filter id="editing-gradow-filter" x="-100%" y="-100%" width="300%" height="300%">
      <feFlood flood-color="#fffcd9" result="flood"></feFlood>
      <feComposite operator="in" in2="SourceAlpha" in="flood" result="shadow"></feComposite>
      <feOffset dx="-4" dy="-4" in="SourceGraphic" result="offset-1"></feOffset>
      <feOffset dx="4" dy="4" in="shadow" result="offset-2"></feOffset>
      <feMerge>
        <feMergeNode in="offset-2"></feMergeNode>
        <feMergeNode in="offset-1"></feMergeNode>
      </feMerge>
    </filter>
  </defs>
  <g filter="url(#editing-gradow-filter)">
    <g transform="translate(48.05999279022217, 100.18906211853027)">
      <path d="M25.53 0L25.53 0L3.12 0L3.12-39L23.35-39L23.35-39Q28.96-39 31.36-36.82L31.36-36.82L31.36-36.82Q33.75-34.63 33.75-30.47L33.75-30.47L33.75-30.47Q33.75-26.26 32.24-24.00L32.24-24.00L32.24-24.00Q30.73-21.74 28.13-21.01L28.13-21.01L28.13-20.64L28.13-20.64Q35.67-19.34 35.67-10.35L35.67-10.35L35.67-10.35Q35.67-5.67 33.20-2.83L33.20-2.83L33.20-2.83Q30.73 0 25.53 0ZM20.49-15.55L20.49-15.55L15.60-15.55L15.60-9.15L20.38-9.15L20.38-9.15Q23.04-9.15 23.04-12.38L23.04-12.38L23.04-12.38Q23.04-15.55 20.49-15.55ZM19.55-30.47L19.55-30.47L15.60-30.47L15.60-24.65L19.45-24.65L19.45-24.65Q21.84-24.65 21.84-27.56L21.84-27.56L21.84-27.56Q21.84-30.47 19.55-30.47ZM39.42-9.36L39.42-31.20L51.90-31.20L51.90-8.16L53.82-8.16L53.82-8.16Q56.11-8.16 57.12-8.63L57.12-8.63L57.12-8.63Q58.14-9.10 58.14-10.82L58.14-10.82L58.14-31.20L70.62-31.20L70.62 0L64.38 0L60.74-3.54L60.74-3.54Q56.99 0.94 50.08 0.94L50.08 0.94L50.08 0.94Q44.51 0.94 41.96-1.43L41.96-1.43L41.96-1.43Q39.42-3.80 39.42-9.36L39.42-9.36ZM95.26-40.56L107.74-41.50L107.74 0L101.50 0L98.80-2.60L98.80-2.60Q96.15 0.94 89.02 0.94L89.02 0.94L89.02 0.94Q85.28 0.94 82.73-0.42L82.73-0.42L82.73-0.42Q80.18-1.77 78.60-4.03L78.60-4.03L78.60-4.03Q77.01-6.29 76.31-9.31L76.31-9.31L76.31-9.31Q75.61-12.32 75.61-15.60L75.61-15.60L75.61-15.60Q75.61-18.72 76.23-21.55L76.23-21.55L76.23-21.55Q76.86-24.39 78.31-26.52L78.31-26.52L78.31-26.52Q79.77-28.65 82.16-29.93L82.16-29.93L82.16-29.93Q84.55-31.20 88.09-31.20L88.09-31.20L95.26-31.20L95.26-40.56ZM89.02-20.38L89.02-20.38L89.02-8.16L90.95-8.16L90.95-8.16Q93.08-8.16 94.09-8.55L94.09-8.55L94.09-8.55Q95.11-8.94 95.26-10.40L95.26-10.40L95.26-23.04L93.34-23.04L93.34-23.04Q91.05-23.04 90.04-22.57L90.04-22.57L90.04-22.57Q89.02-22.10 89.02-20.38ZM132.39-40.56L144.87-41.50L144.87 0L138.63 0L135.93-2.60L135.93-2.60Q133.28 0.94 126.15 0.94L126.15 0.94L126.15 0.94Q122.41 0.94 119.86-0.42L119.86-0.42L119.86-0.42Q117.31-1.77 115.73-4.03L115.73-4.03L115.73-4.03Q114.14-6.29 113.44-9.31L113.44-9.31L113.44-9.31Q112.74-12.32 112.74-15.60L112.74-15.60L112.74-15.60Q112.74-18.72 113.36-21.55L113.36-21.55L113.36-21.55Q113.98-24.39 115.44-26.52L115.44-26.52L115.44-26.52Q116.90-28.65 119.29-29.93L119.29-29.93L119.29-29.93Q121.68-31.20 125.22-31.20L125.22-31.20L132.39-31.20L132.39-40.56ZM126.15-20.38L126.15-20.38L126.15-8.16L128.08-8.16L128.08-8.16Q130.21-8.16 131.22-8.55L131.22-8.55L131.22-8.55Q132.24-8.94 132.39-10.40L132.39-10.40L132.39-23.04L130.47-23.04L130.47-23.04Q128.18-23.04 127.17-22.57L127.17-22.57L127.17-22.57Q126.15-22.10 126.15-20.38ZM161.62-2.86L161.51-3.22L154.96-3.22L147.99-31.20L160.47-31.20L163.90-10.92L164.53-10.92L167.96-31.20L180.44-31.20L172.64 0L172.64 0Q171.81 3.07 170.74 5.04L170.74 5.04L170.74 5.04Q169.68 7.02 168.27 8.19L168.27 8.19L168.27 8.19Q166.87 9.36 165.02 9.83L165.02 9.83L165.02 9.83Q163.18 10.30 160.73 10.30L160.73 10.30L148.62 10.30L148.62 2.18L154.49 1.04L154.49 1.04Q159.02 0 160.37-1.20L160.37-1.20L160.37-1.20Q160.73-1.51 161.04-1.92L161.04-1.92L161.04-1.92Q161.36-2.34 161.62-2.86L161.62-2.86ZM208.47 0L209.87-6.19L220.17-6.19L221.62 0L234.78 0L224.69-39L205.40-39L195.31 0L208.47 0ZM214.71-27.04L215.38-27.04L217.88-16.12L212.16-16.12L214.71-27.04ZM237.17-1.56L237.17-1.56L237.17-40.56L249.65-41.50L249.65-31.15L249.65-31.15Q251.94-32.14 255.89-32.14L255.89-32.14L255.89-32.14Q259.64-32.14 262.18-30.78L262.18-30.78L262.18-30.78Q264.73-29.43 266.32-27.17L266.32-27.17L266.32-27.17Q267.90-24.91 268.61-21.89L268.61-21.89L268.61-21.89Q269.31-18.88 269.31-15.60L269.31-15.60L269.31-15.60Q269.31-6.81 265.25-2.94L265.25-2.94L265.25-2.94Q261.20 0.94 252.98 0.94L252.98 0.94L252.98 0.94Q244.76 0.94 237.17-1.56ZM249.65-20.70L249.65-20.70L249.65-8.16L251.58-8.16L251.58-8.16Q253.86-8.16 254.88-8.63L254.88-8.63L254.88-8.63Q255.89-9.10 255.89-10.82L255.89-10.82L255.89-23.04L253.97-23.04L253.97-23.04Q252.62-23.04 251.78-22.93L251.78-22.93L251.78-22.93Q250.95-22.83 250.33-22.26L250.33-22.26L250.33-22.26Q249.70-21.74 249.65-20.70ZM286.78 0L274.30 0L274.30-31.20L280.54-31.20L283.97-27.72L283.97-27.72Q287.72-31.15 293.23-32.14L293.23-32.14L293.96-20.33L293.96-20.33Q293.23-20.33 292.19-20.12L292.19-20.12L292.19-20.12Q291.15-19.92 290.08-19.60L290.08-19.60L290.08-19.60Q289.02-19.29 288.13-18.85L288.13-18.85L288.13-18.85Q287.25-18.41 286.78-17.84L286.78-17.84L286.78 0ZM296.45-15.60L296.45-15.60L296.45-15.60Q296.45-23.97 300.35-28.05L300.35-28.05L300.35-28.05Q304.25-32.14 312.99-32.14L312.99-32.14L312.99-32.14Q321.72-32.14 325.62-28.05L325.62-28.05L325.62-28.05Q329.52-23.97 329.52-15.60L329.52-15.60L329.52-15.60Q329.52-7.23 325.62-3.15L325.62-3.15L325.62-3.15Q321.72 0.94 312.99 0.94L312.99 0.94L312.99 0.94Q304.46 0.94 300.46-3.07L300.46-3.07L300.46-3.07Q296.45-7.07 296.45-15.60ZM309.87-20.38L309.87-20.38L309.87-8.16L311.79-8.16L311.79-8.16Q314.08-8.16 315.09-8.63L315.09-8.63L315.09-8.63Q316.11-9.10 316.11-10.82L316.11-10.82L316.11-23.04L314.18-23.04L314.18-23.04Q311.90-23.04 310.88-22.57L310.88-22.57L310.88-22.57Q309.87-22.10 309.87-20.38ZM349.28-32.14L349.28-32.14L349.28-32.14Q364.26-32.14 364.26-21.84L364.26-21.84L364.26 0L358.02 0L354.48-3.54L354.48-3.54Q353.55-2.50 352.27-1.66L352.27-1.66L352.27-1.66Q351.00-0.83 349.54-0.26L349.54-0.26L349.54-0.26Q348.09 0.31 346.58 0.62L346.58 0.62L346.58 0.62Q345.07 0.94 343.67 0.94L343.67 0.94L343.67 0.94Q341.02 0.94 338.91 0.39L338.91 0.39L338.91 0.39Q336.80-0.16 335.35-1.35L335.35-1.35L335.35-1.35Q333.89-2.55 333.11-4.52L333.11-4.52L333.11-4.52Q332.33-6.50 332.33-9.36L332.33-9.36L332.33-9.36Q332.33-20.59 349.28-20.59L349.28-20.59L351.78-20.59L351.78-22.83L351.78-22.83Q350.79-22.88 349.99-22.93L349.99-22.93L349.99-22.93Q349.18-22.98 348.50-22.98L348.50-22.98L348.50-22.98Q341.48-22.98 336.39-21.27L336.39-21.27L334.88-30.21L334.88-30.21Q341.12-32.14 349.28-32.14ZM344.92-10.71L344.92-10.71L344.92-8.16L347.52-8.16L347.52-8.16Q350.22-8.16 351.05-8.79L351.05-8.79L351.05-8.79Q351.78-9.46 351.78-10.40L351.78-10.40L351.78-13.36L349.23-13.36L349.23-13.36Q347.00-13.36 345.96-12.90L345.96-12.90L345.96-12.90Q344.92-12.43 344.92-10.71ZM388.28-40.56L400.76-41.50L400.76 0L394.52 0L391.82-2.60L391.82-2.60Q389.17 0.94 382.04 0.94L382.04 0.94L382.04 0.94Q378.30 0.94 375.75-0.42L375.75-0.42L375.75-0.42Q373.20-1.77 371.62-4.03L371.62-4.03L371.62-4.03Q370.03-6.29 369.33-9.31L369.33-9.31L369.33-9.31Q368.63-12.32 368.63-15.60L368.63-15.60L368.63-15.60Q368.63-18.72 369.25-21.55L369.25-21.55L369.25-21.55Q369.88-24.39 371.33-26.52L371.33-26.52L371.33-26.52Q372.79-28.65 375.18-29.93L375.18-29.93L375.18-29.93Q377.57-31.20 381.11-31.20L381.11-31.20L388.28-31.20L388.28-40.56ZM382.04-20.38L382.04-20.38L382.04-8.16L383.97-8.16L383.97-8.16Q386.10-8.16 387.11-8.55L387.11-8.55L387.11-8.55Q388.13-8.94 388.28-10.40L388.28-10.40L388.28-23.04L386.36-23.04L386.36-23.04Q384.07-23.04 383.06-22.57L383.06-22.57L383.06-22.57Q382.04-22.10 382.04-20.38Z" fill="url(#editing-gradow-gradient)"></path>
    </g>
  </g>
</svg>